<svg xmlns="http://www.w3.org/2000/svg" xmlns:xlink="http://www.w3.org/1999/xlink" width="62.777" height="95.752" viewBox="0 0 62.777 95.752"><defs><style>.a{fill:#ffd0a9;}.b,.f{fill:#ffb580;}.b{opacity:0.26;}.c{fill:#ffdcc4;}.d{fill:#ffe2cb;}.e{fill:#ffdec2;}.f{opacity:0.3;}.g{fill:#efad84;opacity:0.25;}.h{fill:url(#a);}.i{fill:#feddc4;}</style><linearGradient id="a" x1="0.5" x2="0.5" y2="1" gradientUnits="objectBoundingBox"><stop offset="0" stop-color="#c5acff"/><stop offset="1" stop-color="#c5f5ff"/></linearGradient></defs><g transform="matrix(0.978, -0.208, 0.208, 0.978, 1221.686, -1230.477)"><path class="a" d="M-1080.459,1300.771c3.239.209,4.684,3.726,2.771,7.551a5.426,5.426,0,0,1-8.413,1.747C-1088.666,1307.489-1080.459,1300.771-1080.459,1300.771Z" transform="translate(-328.985 -308.659)"/><path class="b" d="M-1068.143,1334.9a5.293,5.293,0,0,1-4.78,2.437c-.576-.036-1.263-.279-1.338-.818-.068-.495.425-.878.85-1.177a17.381,17.381,0,0,0,4.5-4.717c.348-.523.477-.8.881-.2a3.678,3.678,0,0,1,.467,1.458A4.6,4.6,0,0,1-1068.143,1334.9Z" transform="translate(-340.054 -334.973)"/><path class="c" d="M-1166.18,957.651a4.765,4.765,0,0,0-2.388,3.436,4.443,4.443,0,0,0,1.437,3.9,6.22,6.22,0,0,0,2.681,1.249,4.09,4.09,0,0,0,2.271.025,1.817,1.817,0,0,0,1.291-1.709,2.445,2.445,0,0,0-.893-1.506,4.749,4.749,0,0,1-1.17-1.343,2.075,2.075,0,0,1,.418-2.077,1.341,1.341,0,0,1,1.758-.268c-.1-.8-.807-1.313-1.029-1.6a1.351,1.351,0,0,0-.862-.613A4.992,4.992,0,0,0-1166.18,957.651Z" transform="translate(-255.36 -0.065)"/><path class="d" d="M-1440.7,1028.175c-7.175-1.913-8.451-7.654-7.494-11.162-2.87.16-4.315-2.094-4.784-4.943-.507-3.086,1.217-7.866,5.6-5.672,0,0,2.049-10.912,8.747-15.7s15.467-1.913,15.467-1.913c.711.183,1.638.434,2.7.776.859.277,1.805.613,2.8,1.023,4.705,1.947,10.4,5.542,12.36,12.176,2.886,9.754-2.886,20.6-7.266,24.683s-6.6,3.918-6.6,3.918Z" transform="translate(0 -27.816)"/><ellipse class="b" cx="2.224" cy="3.202" rx="2.224" ry="3.202" transform="matrix(0.994, -0.108, 0.108, 0.994, -1450.521, 982.71)"/><path class="b" d="M-1320.14,1313.212c-4.9-2.453-8.987-3.186-12.663-2.7l-.073-.018c-.392.1-1.222.123-1.622.2-1.779.333-4.855,1.631-5.486,3.448.107.145.993.1,1.1.243.7-.168.708-.742,1.8-.843,3.978-.369,7.965-1.272,11.929-.776a10.6,10.6,0,0,1,7.542,5.021,16.594,16.594,0,0,0,5.531-3.282l5.272-6.555q.346-.615.674-1.268C-1309.111,1310.108-1313.441,1316.562-1320.14,1313.212Z" transform="translate(-101.511 -313.967)"/><path class="e" d="M-1162.688,958.925a4.37,4.37,0,0,0-.869,4.781,4.036,4.036,0,0,1-1-3.971,4.036,4.036,0,0,1,3.059-2.722,3.512,3.512,0,0,1,2.859.634C-1160.122,958.116-1161.407,957.648-1162.688,958.925Z" transform="translate(-258.85 0)"/><path class="d" d="M-1446.16,1393.542h-4.122s-.957-1.565,2.232-3.32a38.9,38.9,0,0,1,2.392-18.5c2.233-5.1,4.305-8.132,9.727-10.524s16.105-.638,19.135,4.305c0,.478,3.454,6.376,3.454,6.376Z" transform="translate(-2.372 -361.958)"/><path class="f" d="M-1449.223,1668.426a1.7,1.7,0,0,0,1.105.3,4.409,4.409,0,0,0,1.552-.3l0,1.291-3.238-.1a.714.714,0,0,1-.534-.167.614.614,0,0,1-.088-.5,2.089,2.089,0,0,1,.839-1.381C-1449.476,1667.864-1449.523,1668.182-1449.223,1668.426Z" transform="translate(-2.35 -637.936)"/><path class="d" d="M-1101.883,1572.683s5.17,7.436,1.637,14.636a11.417,11.417,0,0,1-10.735,6.591Z" transform="translate(-307.094 -552.764)"/><path class="g" d="M-1046.848,1645.406a8.51,8.51,0,0,0-4.1-1.122c.735.01,1.527-2.188,1.721-2.706A6.616,6.616,0,0,0-1046.848,1645.406Z" transform="translate(-360.99 -614.613)"/><path class="h" d="M-1346.922,1432.909c2.315-.254,9.747-.389,15.17,3.9s6.656,8.043,6.374,13.151-5.566,9.526-5.566,9.526l-8.994,4.462-7.685-1.191s-12.893-7.079-12.145-14.229S-1356.026,1433.91-1346.922,1432.909Z" transform="translate(-83.722 -427.19)"/><path class="d" d="M-1396.951,1580.026s5.56-9.778-1.151-14.449c-6.648-4.627-11.13-1.044-13.936,3.918-1.621,2.867-4.893,9.976-.535,14.557a9.408,9.408,0,0,0,9.477,2.836Z" transform="translate(-34.394 -544.459)"/><path class="i" d="M-1304.983,1710.728a6.966,6.966,0,0,0-.786,4.168,27.742,27.742,0,0,0,2.6,8.783,2.447,2.447,0,0,0,1.227,1.2c.446.13.911.306,1.25-.011a.3.3,0,0,1,.406.009c.232.2.685.275,1.933.313,1.534.046,2.527-.31,2.514-1.395a1.275,1.275,0,0,0,1.628.6,1.862,1.862,0,0,0,.973-1.928,1.944,1.944,0,0,0-1.578-1.526,2.6,2.6,0,0,0-.5-2.635c-.572-.76-1.347-1.356-1.929-2.108a13,13,0,0,1-1.691-3.731c-.395-1.109-1.1-3.157-2.408-3.55C-1302.721,1708.5-1304.323,1709.657-1304.983,1710.728Z" transform="translate(-132.2 -674.987)"/><path class="i" d="M-1197.8,1688.339a11.137,11.137,0,0,1-3.237,4.261q-.994.895-2.055,1.713a5.872,5.872,0,0,1-1.253.794,6.688,6.688,0,0,1-4.2-.136,4.412,4.412,0,0,1-1.363-.51,1.433,1.433,0,0,1-.709-1.183,1.819,1.819,0,0,1-1.346-2.22,1.847,1.847,0,0,1,2.388-1.059,2.324,2.324,0,0,1,.944-2.158,7.235,7.235,0,0,1,2.253-1.075,7.03,7.03,0,0,0,2.248-1.085c.632-.522,1.058-1.249,1.69-1.771.975-.8,3.112-1.263,4.1-.218C-1197.239,1684.864-1197.3,1686.958-1197.8,1688.339Z" transform="translate(-216.372 -651.875)"/><path class="c" d="M-1135.305,984.525a5.593,5.593,0,0,0,3.075,2.2c2.5,1.023,5.17,1.924,7.673,2.948a17.588,17.588,0,0,0-6.082-4.387,10.365,10.365,0,0,1-2.192-1.169c-.861-.689-1.12-1.893.127-3.452A2.784,2.784,0,0,0-1135.305,984.525Z" transform="translate(-285.075 -21.287)"/><path class="e" d="M-1436.188,1173.518a3.158,3.158,0,0,1-.153,1.14,1.073,1.073,0,0,1-.838.711.9.9,0,0,1-.92-.862,1.123,1.123,0,0,1,.786-1.053,1.5,1.5,0,0,1,1.331.265Z" transform="translate(-13.43 -194.309)"/></g></svg>