<svg xmlns="http://www.w3.org/2000/svg" xmlns:xlink="http://www.w3.org/1999/xlink" width="146" height="152" viewBox="0 0 146 152"><defs><style>.a{fill:url(#a);}.b{fill:none;stroke:#0a0050;stroke-linecap:round;stroke-width:2px;}.c{fill:#0a0050;font-size:15px;font-family:SFProDisplay-Regular, SF Pro Display;}.d{fill:#fff;}.e{fill:url(#d);}.f,.g{fill:#dcbbff;}.f{stroke:rgba(0,0,0,0);stroke-miterlimit:10;}.h{fill:#d4f7ff;}.i{fill:#f3f3f3;}.j{fill:#b2b2b2;opacity:0.33;}.k{fill:#ffe2cb;}.l,.n{fill:#ffb680;}.l{opacity:0.21;}.m{fill:#ffb580;}.m,.n{opacity:0.1;}.o{fill:#ffdec2;}.p{fill:#8e3f26;}.q{fill:#d16136;}.r{filter:url(#b);}</style><linearGradient id="a" x1="-0.421" y1="-0.174" x2="1.171" y2="0.531" gradientUnits="objectBoundingBox"><stop offset="0" stop-color="#fff"/><stop offset="1" stop-color="#fff"/></linearGradient><filter id="b" x="0" y="0" width="146" height="152" filterUnits="userSpaceOnUse"><feOffset dy="3" input="SourceAlpha"/><feGaussianBlur stdDeviation="5" result="c"/><feFlood flood-color="#0700d5" flood-opacity="0.059"/><feComposite operator="in" in2="c"/><feComposite in="SourceGraphic"/></filter><linearGradient id="d" x1="0.72" y1="0.229" x2="0.07" y2="1.103" gradientUnits="objectBoundingBox"><stop offset="0" stop-color="#c5acff"/><stop offset="1" stop-color="#c5f5ff"/></linearGradient></defs><g transform="translate(15 12)"><g class="r" transform="matrix(1, 0, 0, 1, -15, -12)"><path class="a" d="M5,0H111a5,5,0,0,1,5,5V117a5,5,0,0,1-5,5H5a5,5,0,0,1-5-5V5A5,5,0,0,1,5,0Z" transform="translate(15 12)"/></g><path class="b" d="M0,0H92" transform="translate(12.5 121.5)"/><text class="c" transform="translate(58.266 112.299)"><tspan x="-23.533" y="0">feeding</tspan></text><g transform="translate(-726.977 -374.042)"><g transform="translate(745.112 375.524)"><path class="d" d="M822.809,400.267a26.585,26.585,0,0,0-2.745-8.419c-.051-.1-.251-.458-.3-.543A25.418,25.418,0,0,0,805.3,380.052a18.607,18.607,0,0,1-2.945-.834c-.608-.336-1.116-1.077-1.718-1.49a10.884,10.884,0,0,0-4.572-1.76,11.729,11.729,0,0,0-5.208.413c-1.734.548-3.041,1.834-4.767,2.225-6.383,1.446-12.481,5.368-15.46,11.29a24,24,0,0,0-2.091,9.869c-.118,2.749.315,5.927-.56,8.6-.6,1.955-2.641,3.561-3.536,5.469a16.68,16.68,0,0,0-.83,2.148c-.287.926-.146.875-.875,1.088-1.2.349-2.624-.012-3.9.409a6.472,6.472,0,0,0-1.274.567c-.788.458-.816.661-1.734.6a19.99,19.99,0,0,1-4-1.244c-2.006-.62-5.307-1.51-6.255,1.22a3.322,3.322,0,0,0,1.7,3.765,13.024,13.024,0,0,0,3.213,1.091l2.055.585.766.219q1.128-.088.8.914a13.991,13.991,0,0,1,.424,6.162,25.372,25.372,0,0,0,.339,7.5,13.552,13.552,0,0,0,3.808,7.128,11.692,11.692,0,0,0,2.045,1.518c1,.588.932.536.719,1.673a11.409,11.409,0,0,0-.037,4.277,9.687,9.687,0,0,0,1.676,3.869c.4.548.961.979,1.35,1.519.6.829.406,1.221.269,2.306-.244,1.921-1.09,5.36-.318,7.179.944,2.226,5.793,2.053,7.83,2.23a44.623,44.623,0,0,0,10.246-.278,41.269,41.269,0,0,0,7.526-1.811c2.188-.753,5.191-1.724,6.969-3.3,1.451-1.289.4-3.065.242-4.7a21.211,21.211,0,0,1,.439-6.941c1.921.738,2.745,2.145,3.754,3.886.155.267,1.276,1.852,1.2,2.228-.088.454-1.756,1.595-2.087,2.064-1.18,1.672-1.177,5.1,1.642,4.718a7.843,7.843,0,0,0-.741,2.146c-.211,2.133,1.451,2.288,2.94,2.806.345.12.644.51,1.026.642.155.053.688.148.635.143a2.653,2.653,0,0,0,1.107-.148,2.224,2.224,0,0,0,.833.532,3.343,3.343,0,0,0,1.431.071c1.6-.341,1.408-1.614,2.406-2.355.452-.336.917-.125,1.643-.445a3.317,3.317,0,0,0,1.715-3.258c-.047-1.477-.9-2.677-1.3-4.047a15.91,15.91,0,0,1-.555-3.058c-.164-1.855-.4-3.744-.674-5.6-.958-6.5-5.729-12.129-11.53-15.024a18.319,18.319,0,0,0,7.017-5.8c.287-.4.917-1.954,1.318-2.139a9.824,9.824,0,0,1,1.215.243,6.358,6.358,0,0,0,4.426-1.388,8.567,8.567,0,0,0,3.23-5.425c.054-.732-.413-1.508-.364-2.152.041-.556.127-.639.623-1.2a15.191,15.191,0,0,0,2.331-3.559c2.456-5.15,2.8-11.585,1.932-17.146C822.355,397.353,823.263,403.181,822.809,400.267Z" transform="translate(-745.432 -375.844)"/><path class="e" d="M790.379,592.719c-.191-3.182.989-15.432,4.636-20.344-8.921,1.07-16.066-3.453-14.224-17.434,0,0,4.222,1.654,7.713-.228.21-.113,2.229,2.106,2.952,6.649,2.11-.733,5.989-.837,12.01-.362,7.936.626,12.394,1.716,14.517,2.421.83.026,10.319,1.516,14.979,10.093a16.024,16.024,0,0,1,2.237,8.7,4.726,4.726,0,0,1,.426,2.126c-3.775,2.6-6.628.49-6.628.49a41.955,41.955,0,0,0-3.6-6.23c-1.211-1.516-3.08-1.8-4.693-2.565-1.546,3.449-1.578,9.777-.568,12.563C820.133,588.6,808.536,596.779,790.379,592.719Z" transform="translate(-769.847 -500.375)"/><path class="d" d="M814.332,570.653c-12.183,8.911-17.309,22.657-1.684,26.322,21.727,5.1,24-11.314,22.892-23.658C833.983,575.57,814.332,570.653,814.332,570.653Z" transform="translate(-785.449 -511.476)"/><g transform="matrix(-0.995, 0.105, -0.105, -0.995, 76.988, 93.56)"><g transform="translate(0 0)"><path class="f" d="M5.677,11.61.931,7.157a6.122,6.122,0,0,1-.9-3.275V3.875l0-.013,0-.013V3.842a1.778,1.778,0,0,1,.266-.7l.011-.017.057-.083A12.457,12.457,0,0,1,3.375,0a10.065,10.065,0,0,1,8.975,6.2,6.342,6.342,0,0,1,.486,1.577c-.077,0-.12,0-.12,0,.159.939-2.606,3.722-4.019,4.452a1.948,1.948,0,0,1-.907.216A3.788,3.788,0,0,1,5.677,11.61Z" transform="translate(3.522 15.132)"/><path class="g" d="M8.7,8.994c-1.412.73-3.021-.628-3.021-.628L.93,3.912S-.481,1.581.173.131C.217.117.26.1.3.091a4.907,4.907,0,0,1,3.15.533A10.043,10.043,0,0,1,8.926,5.948a4.516,4.516,0,0,1,.308,1.415A3.2,3.2,0,0,1,8.89,8.885C8.823,8.925,8.758,8.962,8.7,8.994Z" transform="translate(3.523 18.377)"/><path class="h" d="M21.824,11.856c-1.1,1.126-7.779,8.614-8.561,9.323a6.49,6.49,0,0,1-3.8,1.737,6.369,6.369,0,0,0-.486-1.577A10.067,10.067,0,0,0,0,15.133a.555.555,0,0,1,.365-.1C.144,12.807.733,12.06,3.714,8.853S12.038.362,12.038.362s3.593-1.91,8.353,3.042C25.39,8.6,22.775,10.879,21.824,11.856Z" transform="translate(6.897 0)"/><path class="i" d="M.819,10.146C-.8,8.413.2,7.033,1.985,5.957s1.427-1.18,1.793-3.083S5.658-1.693,9.156,1.452c3.335,3,.263,5.513-1.336,5.572C5.766,7.1,5.253,7.435,4.6,8.746S2.124,11.54.819,10.146Z" transform="translate(0 20.999)"/><path class="g" d="M9.9,9.156A4.564,4.564,0,0,0,9.6,7.38,9.127,9.127,0,0,0,8.212,5.13a12.5,12.5,0,0,0-3.4-2.958C3.31,1.268,1.821.628.1,1.29c-.077.029-.124-.067-.1-.126.72-1.545,2.9-1.3,4.165-.7a15.017,15.017,0,0,1,4.7,3.707,10.32,10.32,0,0,1,1.948,2.89,5.964,5.964,0,0,1,.3,1.009A4.284,4.284,0,0,0,9.9,9.156Z" transform="translate(5.946 14.66)"/><path class="d" d="M.007,9.786c.342-1.028.158-.623.158-.623a.364.364,0,0,1,.013-.044l0,0,.01-.01A.308.308,0,0,1,.2,9.077c.035-.06,6.361-6.643,8.221-8.43.2-.188.607-.763,2.178-.626,3.9.575,7.663,4.446,7.154,8.594-.015.027-1.934,2.05-3.367,3.463S-.336,10.814.007,9.786Z" transform="translate(9.976 2.166)"/></g></g><path class="j" d="M813.288,569.609l-.269-.368a35.814,35.814,0,0,0-8.374,8.4,16.194,16.194,0,0,0-3.236,8.855,8.421,8.421,0,0,0,2.417,6.025,15.3,15.3,0,0,0,7.674,3.856,33.185,33.185,0,0,0,7.538.965,16.787,16.787,0,0,0,8.012-1.787,12.8,12.8,0,0,0,3.986-3.312,17.845,17.845,0,0,0,3.267-7.012,34.6,34.6,0,0,0,.875-8.136c0-1.653-.087-3.291-.229-4.862a.456.456,0,0,0-.829-.218.434.434,0,0,1-.164.122,2.483,2.483,0,0,1-.747.2,8.854,8.854,0,0,1-1.227.072,37.932,37.932,0,0,1-5.253-.5c-3.012-.455-6.349-1.14-8.929-1.711-1.29-.285-2.392-.542-3.17-.728l-.909-.219-.324-.08a.457.457,0,0,0-.38.074l.269.368-.111.442s3.261.816,7.234,1.632c1.987.408,4.153.816,6.184,1.123a38.673,38.673,0,0,0,5.389.514,8.278,8.278,0,0,0,1.734-.149,2.749,2.749,0,0,0,.652-.222,1.322,1.322,0,0,0,.5-.416l-.375-.259-.454.041c.139,1.548.225,3.159.225,4.78,0,4.786-.754,9.657-3.02,13.278a12.136,12.136,0,0,1-4.625,4.378,15.885,15.885,0,0,1-7.583,1.68,32.3,32.3,0,0,1-7.33-.941,14.415,14.415,0,0,1-7.228-3.6,7.5,7.5,0,0,1-2.16-5.391,15.314,15.314,0,0,1,3.076-8.34,34.915,34.915,0,0,1,8.161-8.176l-.269-.368-.111.442Z" transform="translate(-784.404 -510.432)"/><path class="k" d="M809.956,435.306c1.676,3.911,10.168,10.987,25.346,10.381,13.934-.557,16.8-10.949,16.8-10.949,1.223,1.551,4.316,1.722,6.286-.806s2.09-4.053.532-5.588c-.669-.591,4.326-1.831,5.642-11.693,1.313-9.838-.772-25.037-19.848-29.222-3.923-4.3-10.38-2.839-13.132-.729-8.629,1.395-15.46,7.192-16.936,14.021-1.584,7.331.356,13.741-2.394,16.694C808.924,420.983,806.5,427.239,809.956,435.306Z" transform="translate(-789.184 -381.977)"/><path class="l" d="M958.776,535.457a1.692,1.692,0,0,0-.185,1.389,1.52,1.52,0,0,0,1.089.816,2.116,2.116,0,0,0,2.052-.658,1.964,1.964,0,0,0,.246-2.081c-.246-.511-1.091-1.346-1.754-1.2C959.63,533.864,959.018,534.979,958.776,535.457Z" transform="translate(-893.781 -485.755)"/><path class="m" d="M862.283,435.131c1.149-1.268,1.955-1.06,4.065-.67.447.083,1.06-1,1.489-1.036,1.413-1.365,3.7-4.155,4.524-10.359,1.311-9.822-.766-24.987-19.757-29.2l-2.142.6-1.759,2.918s12.775,1.349,17.721,11.043c6.555,12.85-1.52,18.956-4.6,23.049s-3.452,11.36-7.367,14.517c-5.347,4.312-8.959,3.6-13.7,3.59-.42,1.209-4.4,1.229-6.012-.623-8.036.395-15-4.515-15.263-4.71,3.465,3.819,11.362,8.343,23.624,7.853,11.52-.46,15.47-7.639,16.494-10.113A12.372,12.372,0,0,1,862.283,435.131Z" transform="translate(-796.985 -388.391)"/><path class="n" d="M893.386,411.432c-2-2.82-5.22-7.7-1.273-12.306-2.661,1.119-4.664,5.318-2.163,9.154a6.618,6.618,0,0,1-6.05-2.289l1.926,2.439c-.345-.437-2.869-.843-3.508-1.178a21.666,21.666,0,0,1-3.032-2.189C880.651,412.926,893.237,411.938,893.386,411.432Z" transform="translate(-838.625 -392.054)"/><path class="o" d="M881.345,399.343a8.123,8.123,0,0,1,.364-4.552,6.645,6.645,0,0,1,.786-1.4,10.828,10.828,0,0,0-2,.93,5.986,5.986,0,0,0-1.316,3.837,8.018,8.018,0,0,0,.066,1.049,7.3,7.3,0,0,0,2.313,3.323A8.51,8.51,0,0,1,881.345,399.343Z" transform="translate(-838.55 -388.06)"/><path class="o" d="M895,391.174a9.546,9.546,0,0,0-2.334-.055c-.322.033-.649.079-.977.138a6.477,6.477,0,0,0-1.295,1.452,5.78,5.78,0,0,0-.848,2.437c.364,3.708,2.208,6.169,5.488,6.879A11.013,11.013,0,0,1,895,391.174Z" transform="translate(-845.767 -386.446)"/><path class="d" d="M826.139,491.2c-.286.431-.563,2.663,2.242,3.829s4.53.376,3.922-2.413C831.368,488.332,827.033,489.855,826.139,491.2Z" transform="translate(-801.503 -455.182)"/><path class="d" d="M892.943,513.683c.053.274,1.285,1.357,4.128,1.43a12.345,12.345,0,0,0,5.239-1.125s-1.622-4.109-5.049-4.367A3.8,3.8,0,0,0,892.943,513.683Z" transform="translate(-848.126 -468.97)"/><path class="p" d="M895.842,513.214a2.662,2.662,0,0,0,2.269,2.906c2.186.318,2.691-1.9,2.741-2.473a2.521,2.521,0,1,0-5.01-.433Z" transform="translate(-850.144 -469.757)"/><path class="p" d="M832.056,492.033a2.614,2.614,0,1,0,2.136,2.8A2.5,2.5,0,0,0,832.056,492.033Z" transform="translate(-803.93 -456.733)"/><path class="p" d="M901.241,511.6a.719.719,0,0,0,.378-.082c.088-.051.169-.106.26-.152.19-.1.384-.2.58-.278l-.006-.034c-.211-.036-.425-.1-.633-.148-.13-.033-.243-.079-.362-.1q-.024-.22-.066-.434a3.055,3.055,0,0,0,.373-.187,1.729,1.729,0,0,0,.525-.491l-.031-.037a1.629,1.629,0,0,1-.648.1,1.87,1.87,0,0,1-.419-.111,6.456,6.456,0,0,0-1.022-1.821,5,5,0,0,0-3-2.051,5.146,5.146,0,0,0-3.416.695,5,5,0,0,0-2.113,2.614l.04.028a6.652,6.652,0,0,1,2.34-1.694,5.239,5.239,0,0,1,2.894-.195,5.021,5.021,0,0,1,3.976,3.856l.01.035A.365.365,0,0,0,901.241,511.6Z" transform="translate(-847.226 -466.259)"/><path class="p" d="M832.3,488.495a4.04,4.04,0,0,0-1.106-2.482,3.072,3.072,0,0,0-2.756-.829c-.108-.152-.285-.233-.4-.4a2.637,2.637,0,0,1-.268-.634l-.053,0a2.746,2.746,0,0,0-.1.765c0,.122-.017.242-.018.358a4.652,4.652,0,0,0-.5.126,2.638,2.638,0,0,1-.365-.359,2.352,2.352,0,0,1-.356-.776.026.026,0,0,0-.05,0,3.277,3.277,0,0,0,.164,1.374,2.694,2.694,0,0,0-1.556,2.046l.041.022a7.608,7.608,0,0,1,1.5-1.266,3.452,3.452,0,0,1,2.063-.241,5.219,5.219,0,0,1,1.948.611A2.928,2.928,0,0,1,831.7,488.6.318.318,0,0,0,832.3,488.495Z" transform="translate(-800.777 -451.251)"/><path class="q" d="M910.606,477a17,17,0,0,1,2.879,1.652l.043-.036a6.3,6.3,0,0,0-2.453-2.784,4.833,4.833,0,0,0-2.62-.936c-.6.029-.706,1.337-.162,1.406A6.055,6.055,0,0,1,910.606,477Z" transform="translate(-858.575 -444.807)"/><path class="q" d="M834.806,462.871c.605-.017.733-1.114.168-1.349a4.319,4.319,0,0,0-2.783.034,10.329,10.329,0,0,0-2.783,1.425c-.425.425.859-.236,2.747-.378C832.983,462.541,833.8,462.9,834.806,462.871Z" transform="translate(-803.841 -435.344)"/><path class="q" d="M848.841,534.736c.06.027.119.057.177.087.851,1.167,5.234,3.975,5.847,5.151.6,1.153,3,.571,4.02-.663.246-.3,1.924-2.548,2.578-3.541l.034,0a.477.477,0,1,0-.433-.412c-.8.246-2.08.718-2.372.784a14.191,14.191,0,0,1-3.836.368,9.961,9.961,0,0,1-2.914-.6c-.172-.063-1.407-.726-2.247-1.138a3.4,3.4,0,0,1-.383-.545C848.981,533.627,848.2,534.446,848.841,534.736Z" transform="translate(-817.259 -485.965)"/><path class="q" d="M.272.032C.18.053-.034.1,0,.226c.061.195.319.4.475.539.223.205.41.437.635.641a.471.471,0,0,0,.823-.316A1.437,1.437,0,0,0,.947.069,1.191,1.191,0,0,0,.272.032Z" transform="translate(34.255 44.338) rotate(-30)"/><path class="d" d="M898.464,519a.55.55,0,1,1-.5-.591A.549.549,0,0,1,898.464,519Z" transform="translate(-851.212 -475.1)"/><path class="d" d="M832.573,499.12a.55.55,0,1,1-.5-.591A.549.549,0,0,1,832.573,499.12Z" transform="translate(-805.337 -461.259)"/><path class="d" d="M902.434,515.59a.322.322,0,1,1-.293-.346A.321.321,0,0,1,902.434,515.59Z" transform="translate(-854.294 -472.898)"/><path class="d" d="M836.537,495.872a.322.322,0,1,1-.293-.346A.321.321,0,0,1,836.537,495.872Z" transform="translate(-808.415 -459.169)"/><path class="k" d="M791.019,523.88a5.425,5.425,0,0,0-1.5-3.835c-2.056-1.875-5.645-1.8-7.49-.973-2.522,1.128-3.957,4.351-2.43,9.238.041.131.265,1.9.368,2,.251.27,4.039,2.136,7.233-.07.291-.2-.176-.572-.121-.9a3.412,3.412,0,0,0,2.435-1.444c.884-1.322,2.561-.852,3.542-.916,0,0,1.456-1.773-1.738-2.992Z" transform="translate(-768.787 -475.177)"/><path class="i" d="M763.647,520.916s-4.584-1.466-10.234-3.2c-3.627-1.115-3.84,1.836-1.138,2.613,3.757,1.08,19.567,5.484,20.848,6.493.676,1.18,1.615,3.642,5.246,4.519,5.126,1.238,6.383-2.249,6.383-2.249-.849-2.44-4.839-3.883-10.861-4.687C773.689,524.353,763.647,520.916,763.647,520.916Z" transform="translate(-748.921 -474.444)"/><path class="k" d="M786.881,526.548a2.852,2.852,0,0,0,2.345,1.249,21.681,21.681,0,0,0,4.369.166,2.981,2.981,0,0,0,1.789-.538,2.115,2.115,0,0,0,.4-2.383,4.161,4.161,0,0,0-2.585-2.19,12.445,12.445,0,0,0-3.459-.478c-.825-.036-2.579-.214-2.789.782-.074.349.012,1.326-.018,1.769C786.894,525.507,786.625,525.994,786.881,526.548Z" transform="translate(-774.214 -477.838)"/><path class="k" d="M812.5,530.077c.259,1.075.183,3.526-1.257,3.822s-.836-1.014-.836-1.014Z" transform="translate(-790.583 -483.226)"/><path class="d" d="M829.608,543.937c.017.056.052.119.277.386.65.917,5.736,3.66,9.675,2.509a23.812,23.812,0,0,0-4.93-2.213A19.282,19.282,0,0,0,829.608,543.937Z" transform="translate(-804.038 -492.598)"/><path class="q" d="M869.784,560.206a2.284,2.284,0,0,0,2.213,1.17.3.3,0,0,0,0-.593,5.782,5.782,0,0,1-2.2-.593Z" transform="translate(-832.009 -504.191)"/><path class="k" d="M3.71.2C2.362.562,2.637.4,1.081,1.888-.314,3.223-.143,4.6.4,4.563c1.132-.073,1.225-.848,2.625-.841.158,2.894-1.778,4.439-1.134,5.363.666.956,1.949.3,3-1.874-.193,1.351-1.645,2.461-.3,3.014,1.05.433,2.586-1.97,2.586-1.97s-1.116,2.738.4,2.528c1.669-.232,1.766-4.449,2.034-4.653.467.382.7,1.849,1.325,1.995.784.182,2.068-.209.27-3.231C9.719-.658,5.057-.16,3.71.2Z" transform="matrix(-0.259, 0.966, -0.966, -0.259, 67.478, 83.523)"/></g></g></g></svg>