<svg xmlns="http://www.w3.org/2000/svg" xmlns:xlink="http://www.w3.org/1999/xlink" width="97.292" height="114.379" viewBox="0 0 97.292 114.379"><defs><style>.a{fill:#fff;}.b{fill:#b2b2b2;}.c{fill:#ffe2cb;}.d{fill:#ffd0a8;}.e{fill:#ffb580;opacity:0.15;}.f{fill:url(#a);}.g{fill:#ffdec2;}.h{fill:#d16136;}.i{fill:#8e3f26;}</style><radialGradient id="a" cx="0.83" cy="0.393" r="0.743" gradientTransform="matrix(-0.999, -0.048, 0.052, -1.087, 1.275, 0.87)" gradientUnits="objectBoundingBox"><stop offset="0" stop-color="#c5acff"/><stop offset="1" stop-color="#c5f5ff"/></radialGradient></defs><g transform="translate(-205.478 -429.962)"><g transform="translate(232.497 429.962) rotate(16)"><path class="a" d="M71.123,27.14h0a3.361,3.361,0,0,0-3.1.588c-.485.383-.781,1.025-1.306.339a6,6,0,0,1-.41-2.408c-.389-3.621-.565-7.239-1.224-10.833a14.187,14.187,0,0,0-4.051-8.17,20.429,20.429,0,0,0-8.532-4.521A34.285,34.285,0,0,0,41.5,1.142a9.582,9.582,0,0,1-2.014.1c-.675-.113-1.248-.814-1.945-.9A15.582,15.582,0,0,0,33.313.022a8.106,8.106,0,0,0-3.842,1.3c-1.367.9-1.843,2.713-3.223,3.461a20.206,20.206,0,0,0-6.8,5.729c-4.054,5.771-2.97,13.1-1.781,19.495.139.748.987,3.482-.35,3.291-.69-.1-1.372-.629-2.129-.727a3.319,3.319,0,0,0-2.09.258c-2.931,1.661-.929,6.042,1.107,7.536.376.276,1.554.618,1.1,1.242-.224.31-1.5.5-1.859.626-.483.174-1.74,1.021-2.223.9-.781-.189-.091-1.27-.223-1.778C10.588,39.77,8.76,40,7.779,40.843c-1.1.937-1.624,2.244-2.775,3.108C2.446,45.871.376,48.589.046,51.765a7.969,7.969,0,0,0,.717,4.3c.317.653.869,1.16.9,1.878.035.926-.225,1.922-.256,2.858a30.45,30.45,0,0,0,.92,8.31A38.388,38.388,0,0,0,3.99,74.238q.609,1.514,1.335,2.983L20.4,96.832c.492-.164,1.065.662,1.447.873a2.5,2.5,0,0,0,1.18.321c.485.015,1.884-.485,2.2-.009.254.386,44.028-19.668,43.325-22.765a5.736,5.736,0,0,0-.977-2.185c-.307-.409-.646-.6-.7-1.1a5.7,5.7,0,0,1,.412-1.381q.176-.677.3-1.365a17.158,17.158,0,0,0,.291-3.1,13.435,13.435,0,0,0-3.228-8.938,13.585,13.585,0,0,0-3.977-3.061,16.362,16.362,0,0,0-2.684-1.082c-.609-.187-2.154-.311-1.358-1.165a6.942,6.942,0,0,1,1.739-.792,15.971,15.971,0,0,0,2.4-1.443,24.281,24.281,0,0,0,4.355-4.289A11.387,11.387,0,0,0,67.6,40.513a17.983,17.983,0,0,0,.419-3.193c.015-.318-.118-.977.144-1.237.283-.28,1.094-.25,1.473-.368a4.672,4.672,0,0,0,3.41-3.991C73.282,30.147,72.866,27.828,71.123,27.14Z" transform="translate(0 0)"/><path class="b" d="M.125.04.131,0H0L.062.019h0Z" transform="translate(61.436 88.627)"/><path class="b" d="M.1,0,0,.026H.1Z" transform="translate(61.466 88.601)"/><path class="b" d="M0,0,.061.026l0-.006Z" transform="translate(61.498 88.646)"/><path class="b" d="M0,0H0L.064.02Z" transform="translate(61.498 88.646)"/><path class="b" d="M0,.009l0,0L.009,0Z" transform="translate(61.656 88.533)"/><path class="b" d="M.005,0l0,.026L0,.065,0,.072,0,.065.022.04C.013.02.007.006.006,0Z" transform="translate(61.559 88.601)"/><path class="b" d="M.079.068h0L0,0,.08.068Z" transform="translate(61.586 88.465)"/><path class="b" d="M.08.068,0,0,.07.078.079.068Z" transform="translate(61.586 88.465)"/><path class="c" d="M66.884,26.57h0a3.063,3.063,0,0,0-2.917.576c-.456.375-.735,1-1.228.332a6.093,6.093,0,0,1-.385-2.357c-.366-3.545-.531-7.088-1.151-10.605a14.111,14.111,0,0,0-3.81-8A18.977,18.977,0,0,0,49.366,2.09a31.015,31.015,0,0,0-10.335-.972,8.661,8.661,0,0,1-1.894.1c-.635-.11-1.173-.8-1.829-.886a14.1,14.1,0,0,0-3.98-.31,7.426,7.426,0,0,0-3.613,1.27c-1.285.877-1.733,2.656-3.031,3.388a19.216,19.216,0,0,0-6.4,5.609c-3.812,5.65-2.793,12.826-1.675,19.086.13.732.928,3.409-.329,3.222-.649-.1-1.29-.616-2-.712a3.009,3.009,0,0,0-1.965.253c-2.756,1.626-.874,5.915,1.041,7.378.354.27,1.461.605,1.038,1.216-.211.3-1.412.487-1.748.613-.455.171-1.637,1-2.09.886-.734-.185-.085-1.243-.21-1.741-.387-1.553-2.106-1.324-3.028-.5-1.031.918-1.527,2.2-2.61,3.043a11.469,11.469,0,0,0-4.662,7.65,8.084,8.084,0,0,0,.675,4.209c.3.64.817,1.136.843,1.839.033.906-.211,1.882-.241,2.8a30.981,30.981,0,0,0,.865,8.136,38.688,38.688,0,0,0,1.568,5.019q.573,1.483,1.255,2.92L19.186,94.8c.463-.161,1,.648,1.361.855a2.283,2.283,0,0,0,1.11.314c.456.015,1.772-.474,2.067-.008.239.378,41.4-19.255,40.743-22.287a5.729,5.729,0,0,0-.919-2.139c-.289-.4-.607-.592-.66-1.08a5.756,5.756,0,0,1,.387-1.352c.11-.442.206-.888.285-1.336a17.474,17.474,0,0,0,.273-3.034A13.483,13.483,0,0,0,60.8,55.98a12.849,12.849,0,0,0-3.74-3,15.035,15.035,0,0,0-2.524-1.059c-.573-.183-2.026-.3-1.277-1.14.318-.355,1.2-.556,1.635-.775A14.923,14.923,0,0,0,57.151,48.6a23.3,23.3,0,0,0,4.1-4.2,11.32,11.32,0,0,0,2.32-4.735,18.3,18.3,0,0,0,.394-3.126c.014-.311-.111-.956.135-1.211.266-.274,1.029-.245,1.385-.361a4.526,4.526,0,0,0,3.206-3.907C68.914,29.514,68.523,27.244,66.884,26.57Z" transform="translate(2.434 1.699)"/><path class="b" d="M0,0H0Z" transform="translate(67.509 38.901)"/><path class="d" d="M.059.024h0C-.038-.016,0,0,.059.024Z" transform="translate(68.739 28.543)"/><path class="d" d="M0,0H0C.091.037.223.091,0,0Z" transform="translate(68.8 28.568)"/><path class="d" d="M0,0H0Z" transform="translate(68.799 28.568)"/><path class="e" d="M14.532,50.445C2,52.7,0,49.988,0,49.988l4.051,6.771s14.775,4.3,25.866-2.739a13.355,13.355,0,0,0-1.736-1.114,15.036,15.036,0,0,0-2.524-1.059c-.573-.183-2.026-.3-1.277-1.14.318-.355,1.2-.556,1.635-.775a14.914,14.914,0,0,0,2.259-1.413,23.3,23.3,0,0,0,4.095-4.2,11.324,11.324,0,0,0,2.321-4.735,18.245,18.245,0,0,0,.394-3.126c.014-.311-.111-.956.136-1.21.266-.275,1.029-.245,1.385-.361a4.525,4.525,0,0,0,3.206-3.907c.226-1.543-.165-3.814-1.8-4.487.09.037.221.091,0,0-.1-.04-.061-.025,0,0a3.064,3.064,0,0,0-2.916.576c-.456.375-.734,1-1.228.332a6.093,6.093,0,0,1-.386-2.357c-.366-3.545-.531-7.088-1.151-10.605a14.111,14.111,0,0,0-3.81-8,18.973,18.973,0,0,0-8.024-4.425A31,31,0,0,0,10.153,1.04a8.67,8.67,0,0,1-1.894.1A7.641,7.641,0,0,0,4.793,0C.417,1.045.329,5.823,1.483,7.855c1.652,2.907,5.428,3.593,5.428,3.593-1.6-1.6-1.659-5.549,2.117-7.037s14.531-1.03,17.735,4.92,1.2,10.679,1.657,15.256,3.274,4.63,3.549,12.605C32.157,42.651,24.518,48.646,14.532,50.445Z" transform="translate(30.796 2.077)"/><path class="f" d="M40.975,50.8c7.642-3.1,19.85-11.221,21.909-21.934s-3.665-16.826-11.72-17.725A32.009,32.009,0,0,0,33.8,13.789S26.734-2.535,14.808.339-1.286,15.168.335,24.134,7.582,45.114,19.647,55.545C21.292,56.55,33.333,53.907,40.975,50.8Z" transform="translate(3.146 42.123)"/><path class="c" d="M15.4,7.373a5.815,5.815,0,0,0-.836-2.017,11.361,11.361,0,0,0-1.038-.527,4.4,4.4,0,0,1-.342-1.97A3.5,3.5,0,0,0,12.362.566,1.7,1.7,0,0,0,10.119.322a2.437,2.437,0,0,0-.473,2.225,3.593,3.593,0,0,1-.111,2.325C9,5.792,7.746,5.94,6.689,5.85A12.751,12.751,0,0,1,3.958,5.31,5.576,5.576,0,0,0,2.7,5a2.425,2.425,0,0,0-1.035.158A2.155,2.155,0,0,0,.293,6.73,1.619,1.619,0,0,0,1.251,8.5a2.2,2.2,0,0,0-.914,3.146,4.265,4.265,0,0,0,2.357,1.361l1.654.521A.586.586,0,0,1,3.871,14a1.479,1.479,0,0,1-.7-.064c-.745-.206-1.6-.519-2.233-.074a1.805,1.805,0,0,0-.594,1.567,2.683,2.683,0,0,0,1.4,2.443,3.134,3.134,0,0,1,.566.249,1.671,1.671,0,0,1,.418.488c.358.551,3.376.6,5.864-.085s2.878-1.455,4.088-2.64A9.474,9.474,0,0,0,15.4,7.373Z" transform="translate(50.984 68.298)"/><path class="c" d="M13.054,15.634a2.3,2.3,0,0,0,.99-1.235,1.285,1.285,0,0,0-.484-1.426,1.96,1.96,0,0,0,1.878-1.849,2.931,2.931,0,0,0-1.972-2.48c-1.027-.449-2.169-.6-3.183-1.074A2.807,2.807,0,0,1,8.456,5,2.855,2.855,0,0,1,9.595,3.191a4.355,4.355,0,0,0,.636-.579c-.14-.4.206-1.092.112-1.468C9.957-.408,8.238-.18,7.315.642c-1.031.918-1.528,2.2-2.61,3.043a11.471,11.471,0,0,0-4.662,7.65,8.087,8.087,0,0,0,.675,4.209,6.7,6.7,0,0,1,.825,1.666,12.383,12.383,0,0,1,.752,1.534c.406,1.045.689,2.338,1.729,2.757a2.642,2.642,0,0,0,2.455-.59,2.514,2.514,0,0,1,.9-.521,2.542,2.542,0,0,1,.8.013,3.188,3.188,0,0,0,2.293-.5,1.615,1.615,0,0,0,.437-2.128c-.433-.582-1.263-.677-1.857-1.095a1.974,1.974,0,0,1-.821-1.471A3.982,3.982,0,0,0,13.054,15.634Z" transform="translate(1.918 41.343)"/><path class="a" d="M.184,2.378C-.16,3.623-.217,5.868,1.8,5.01A12.029,12.029,0,0,1,5.933,3.952c1.112-.1,1.573-.586,1.058-1.959A3.546,3.546,0,0,0,2.758.1,3.438,3.438,0,0,0,.184,2.378Z" transform="translate(48.536 30.869)"/><path class="a" d="M.227,2.691C-.36,3.778.247,4.492,1.414,4.35a14.035,14.035,0,0,1,4.3.329c.558.2,2.124.08,1.674-1.745A3.436,3.436,0,0,0,3.33.045C.295.458.227,2.691.227,2.691Z" transform="translate(25.652 32.788)"/><path class="g" d="M3.247,2.3a1.645,1.645,0,0,0-.3-.807A3.782,3.782,0,0,0,1.011,0,.56.56,0,0,1,.789.081,1.161,1.161,0,0,0,.036.724,2.871,2.871,0,0,0,0,1.267,3.433,3.433,0,0,0,.269,2.5,2.091,2.091,0,0,0,1.9,3.534,1.3,1.3,0,0,0,3.247,2.3Z" transform="translate(51.322 82.455)"/><path class="g" d="M.173,0,0,.156C.07.175.138.2.207.224L.231.2C.292.137.263,0,.173,0Z" transform="translate(52.126 82.231)"/><path class="g" d="M1.722,3.177a.614.614,0,0,0,.345.037.544.544,0,0,0,.313-.458A2.346,2.346,0,0,0,1.011.3,6.926,6.926,0,0,1,.34,0,.849.849,0,0,0,.112.3,2.081,2.081,0,0,0,0,1.2a2.343,2.343,0,0,0,.172,1A2.37,2.37,0,0,0,1.722,3.177Z" transform="translate(51.289 77.471)"/><path class="g" d="M.625.1.141,0A2,2,0,0,0,0,.158a1.221,1.221,0,0,0,.142.1A.6.6,0,0,1,.625.1Z" transform="translate(51.487 77.216)"/><path class="g" d="M.022,1.738A1.619,1.619,0,0,0,.98,3.508l-.062.031.148.1a3.966,3.966,0,0,0,2.907.758c-.8-.668-1.316-1.1-1.659-1.4a1.622,1.622,0,0,1-.768-1.434A2.245,2.245,0,0,1,2.209.086c-.2-.056.433-.065.222-.08A2.425,2.425,0,0,0,1.4.164,2.155,2.155,0,0,0,.022,1.738Z" transform="translate(51.255 73.29)"/><path class="c" d="M3.2,1.7A7.206,7.206,0,0,0,1.895.258,1.258,1.258,0,0,0,.159.437,1.449,1.449,0,0,0,0,1.189,4.732,4.732,0,0,0,1.24,4.371a2.243,2.243,0,0,0,.943.659,1.11,1.11,0,0,0,1.089-.205,1.426,1.426,0,0,0,.358-.883,3.894,3.894,0,0,0-.767-2.777Z" transform="translate(14.877 36.014)"/><path class="h" d="M0,0,.51.563A6.064,6.064,0,0,0,0,0Z" transform="translate(16.711 92.573)"/><path class="h" d="M0,0A6.88,6.88,0,0,0,.672.743Z" transform="translate(16.039 91.83)"/><path class="h" d="M1.245,2.847l.026-.029a.229.229,0,0,0,.317-.144c.088-.447-.407-.515-.707-.327a1.3,1.3,0,0,0-.407.605,9.439,9.439,0,0,0-.454.981.444.444,0,0,0,.307.539.449.449,0,0,0,.539-.306,4.715,4.715,0,0,0,.188-.619c5.571,3.609,13.085,2.357,17.8-2.1a4.73,4.73,0,0,1,.285.462c.308.585,1.153.071.878-.513A2.6,2.6,0,0,0,18.1,0a.256.256,0,0,0-.2.466,3.728,3.728,0,0,1,.384.268,14.449,14.449,0,0,1-7.957,3.926A16.09,16.09,0,0,1,1.165,3.078.655.655,0,0,1,1.245,2.847Z" transform="translate(30.661 40.424)"/><path class="h" d="M1.451.094A1.131,1.131,0,0,0,1.328.046L1.264.03A1.019,1.019,0,0,0,1.156.009L1.087,0A.97.97,0,0,0,.964,0H.942A1.058,1.058,0,0,0,.786.029L.759.035A1.127,1.127,0,0,0,.608.089L.583.1A1.219,1.219,0,0,0,.435.181l-.006,0L.417.193A1.4,1.4,0,0,0,.27.3.772.772,0,0,0,.006.681.27.27,0,0,0,.02.842v0L.055.912.068.929.092.959.107.972.131.988.146.994.175,1H.187L.223,1H.231L.279.979.293.973.335.956.383.935.407.925.448.909.475.9.519.887.548.879.6.869l.029,0,.07,0H.715l.052,0L.8.864.88.879.9.883.967.907.989.919l.042.024,0,0,.029.019L1.1.989l.009.005.042.026.03.017.045.022.031.014.055.017.029.008a.515.515,0,0,0,.1.009.607.607,0,0,0,.12-.012L1.6,1.083l.037-.01.03-.013.04-.018.026-.016.034-.022.023-.02L1.821.96,1.84.937,1.862.909,1.877.883l.017-.03L1.9.824,1.915.792,1.921.761,1.928.729h0V.662l0-.033,0-.033L1.914.562,1.9.529,1.892.5,1.878.462,1.86.43,1.841.4,1.819.367,1.794.334,1.768.306,1.738.275,1.707.249,1.668.218l.016.011.007.005L1.683.229,1.668.218l-.006,0,.006,0a1.262,1.262,0,0,0-.17-.1Z" transform="translate(39.041 38.928)"/><path class="h" d="M0,0,0,0H0L0,0Z" transform="translate(43.218 38.412)"/><path class="h" d="M0,0H0Z" transform="translate(43.223 38.416)"/><path class="h" d="M0,0H0Z" transform="translate(43.224 38.417)"/><path class="h" d="M0,0,.034.025Z" transform="translate(43.378 38.528)"/><path class="h" d="M.018.013h0L0,0,.013.009l0,0,0,0h0Z" transform="translate(43.198 38.398)"/><path class="h" d="M.062.045.027.019,0,0,.02.014Z" transform="translate(43.292 38.466)"/><path class="h" d="M.034.025l0,0h0l-.005,0L0,0,.026.019Z" transform="translate(43.254 38.438)"/><path class="h" d="M.31,3.169c1.211-1.423,2.941-1.706,4.7-1.948.753-.1.491-1.125-.143-1.2C2.8-.211,1,1.336.024,2.954-.079,3.125.173,3.33.31,3.169Z" transform="translate(23.669 25.045)"/><path class="h" d="M5.911,2.153a.191.191,0,0,0,.273-.267A5.89,5.89,0,0,0,.4.222C-.158.426-.148,1.315.53,1.3,2.265,1.263,4.485.922,5.911,2.153Z" transform="translate(49.45 22.434)"/><path class="i" d="M9.25,1.156A3.331,3.331,0,0,0,6.27.02,4.772,4.772,0,0,0,3.136,1.311,8.43,8.43,0,0,0,1.89,3a2.7,2.7,0,0,1-.358-.19,2.464,2.464,0,0,1-.838-.8C.677,1.984.627,2,.638,2.034A3.847,3.847,0,0,0,1.6,3.661c-.032.09-.061.181-.087.273a3.387,3.387,0,0,0-1.476.2c-.049.018-.05.1.012.1a3.57,3.57,0,0,1,1.857.4.32.32,0,0,0,.412-.109L2.337,4.5c.037-.073.078-.144.117-.217a10.467,10.467,0,0,1,1.2-1.809,2.5,2.5,0,0,1,.839-.644,2.644,2.644,0,0,0-.327,2.363,2.584,2.584,0,0,0,.124.3c.04.083.082.163.128.241l.163.005a18.389,18.389,0,0,1,3.847.442,2.469,2.469,0,0,0,.167-.22A2.644,2.644,0,0,0,8.9,2.631,2.743,2.743,0,0,0,8.517,1.9l.064.056a5.347,5.347,0,0,1,1.3,2.73l.022.09a.406.406,0,0,0,.785-.205A8.355,8.355,0,0,0,9.25,1.156ZM5.329,4.308a.629.629,0,1,1,.629-.63A.629.629,0,0,1,5.329,4.308Z" transform="translate(23.167 32.387)"/><path class="i" d="M.9,2.252A8.931,8.931,0,0,0,0,5.729c-.07.5.757.514.808.005.012-.119.025-.238.04-.358A5.425,5.425,0,0,1,1.6,3a2.225,2.225,0,0,1,.845-.759,2.749,2.749,0,0,0-.783,1.445,2.6,2.6,0,0,0,.625,2.282c.054.058.11.115.17.168A18.6,18.6,0,0,1,6.213,5.15l.161-.029c.034-.08.065-.163.093-.246a2.669,2.669,0,0,0,.087-.325,2.587,2.587,0,0,0-.826-2.479,2.419,2.419,0,0,1,.919.488A5.535,5.535,0,0,1,7.978,4.29a.4.4,0,0,0,.122.287.379.379,0,0,0,.492.075,8.483,8.483,0,0,1,.759-.528,2.436,2.436,0,0,1,.876-.26l.009-.031a1.487,1.487,0,0,0-1.276-.273c-.075-.14-.167-.3-.274-.462.081-.078.164-.155.252-.231a7.786,7.786,0,0,0,.987-.95.035.035,0,0,0-.043-.054,4.949,4.949,0,0,1-1.714.523,5.776,5.776,0,0,0-.879-.877c-.1-.076-.194-.147-.293-.216A5.938,5.938,0,0,0,7.676.036c.012-.03-.029-.047-.051-.029C7.244.331,6.872.66,6.5.985A4.222,4.222,0,0,0,3.9.452,3.679,3.679,0,0,0,.9,2.252Zm2.259,1.52a.629.629,0,1,1-.629.629A.629.629,0,0,1,3.162,3.772Z" transform="translate(47.918 29.748)"/><path class="a" d="M.677.339A.339.339,0,1,1,.339,0,.339.339,0,0,1,.677.339Z" transform="translate(28.566 34.3)"/><path class="a" d="M.677.339A.339.339,0,1,1,.339,0,.339.339,0,0,1,.677.339Z" transform="translate(50.959 32.155)"/></g><path class="g" d="M2.166,5.076a5.946,5.946,0,0,1,.61-3.854A6.347,6.347,0,0,1,3.653,0,13.821,13.821,0,0,0,1.559.888a5.076,5.076,0,0,0-1.547,3.3,5.484,5.484,0,0,0,.012.881A5.341,5.341,0,0,0,2.217,7.749,5.838,5.838,0,0,1,2.166,5.076Z" transform="matrix(0.966, 0.259, -0.259, 0.966, 255.256, 443.159)"/><path class="g" d="M5.786.028A11.849,11.849,0,0,0,3.4.1C3.07.148,2.733.2,2.394.271a7.07,7.07,0,0,0-1.4,1.291A4.9,4.9,0,0,0,0,3.659c.179,3.1,1.937,5.082,5.256,5.509C3.406,6.507,3.735,2.907,5.786.028Z" transform="matrix(0.966, 0.259, -0.259, 0.966, 258.659, 443.231)"/></g></svg>