<svg xmlns="http://www.w3.org/2000/svg" xmlns:xlink="http://www.w3.org/1999/xlink" width="414" height="126" viewBox="0 0 414 126"><defs><style>.a,.e,.g,.h{fill:#0a0050;}.a,.g,.i{stroke:#fff;}.a,.g{stroke-width:2.1px;}.b{fill:#fff;}.c,.j,.k,.m{fill:none;}.c{stroke:#b166ff;stroke-linecap:round;}.d{fill:#140a5a;font-size:13px;font-family:SFProDisplay-Regular, SF Pro Display;}.f{clip-path:url(#c);}.g{stroke-linejoin:round;}.h{stroke:rgba(0,0,0,0);stroke-miterlimit:10;}.i{fill:#b166ff;stroke-width:0.2px;}.j,.k{stroke:#0a0050;}.k{stroke-width:0.8px;}.l{stroke:none;}.n{filter:url(#a);}</style><filter id="a" x="0" y="0" width="414" height="126" filterUnits="userSpaceOnUse"><feOffset input="SourceAlpha"/><feGaussianBlur stdDeviation="6" result="b"/><feFlood flood-opacity="0.071"/><feComposite operator="in" in2="b"/><feComposite in="SourceGraphic"/></filter><clipPath id="c"><rect class="a" width="28" height="28" transform="translate(2.601 1.306)"/></clipPath></defs><g transform="translate(18 18)"><g class="n" transform="matrix(1, 0, 0, 1, -18, -18)"><rect class="b" width="378" height="90" rx="7" transform="translate(18 18)"/></g><line class="c" x2="15" transform="translate(26.5 64.5)"/><g transform="translate(-3 3)"><text class="d" transform="translate(189 55.5)"><tspan x="-17.9" y="0">Diaper</tspan></text><path class="e" d="M31.438,29.6V26.357H25a2.144,2.144,0,0,0,0,4.263h6.44V29.264a.408.408,0,1,1,.812,0v1.809a.431.431,0,0,1-.406.452h-.635c-.286,6.958-5.427,12.44-11.683,12.459H17.474c-6.256-.019-11.4-5.5-11.683-12.459H5.156a.431.431,0,0,1-.406-.452V25.9a.431.431,0,0,1,.406-.452h.62V22.892a.431.431,0,0,1,.406-.452H30.818a.431.431,0,0,1,.406.452v2.561h.62a.431.431,0,0,1,.406.452v3.7a.408.408,0,1,1-.812,0ZM5.562,30.62H12a2.144,2.144,0,0,0,0-4.263H5.562Zm24.666,2.532a8.294,8.294,0,0,0-5.706,3.218,9.851,9.851,0,0,0-2.062,6.213v.043A11.778,11.778,0,0,0,30.228,33.153ZM25,25.453h5.414V23.344c.006-.038-23.819.007-23.824,0v2.108H12a2.894,2.894,0,0,1,2.727,3.036A2.894,2.894,0,0,1,12,31.525H6.6c.01.24.025.478.046.714a8.236,8.236,0,0,1,6.686,3.787c1.534,2.655,1.463,2.783,1.588,3.28s-.226,1.031-.384.854c-.526-.588-1.158-3.025-2.307-4.134a6.519,6.519,0,0,0-5.462-2.87,11.778,11.778,0,0,0,7.769,9.47v-.043a10.425,10.425,0,0,0-.464-3.094c-.073-.236.7-.6.773-.367a11.9,11.9,0,0,1,.5,3.461v.262a9.773,9.773,0,0,0,2.121.233h2.051a9.773,9.773,0,0,0,2.121-.233v-.262c-.027-5.475,3.794-10.018,8.7-10.346.023-.236.037-.474.046-.714H25a2.894,2.894,0,0,1-2.727-3.036A2.894,2.894,0,0,1,25,25.452Z" transform="translate(170.25 -6.295)"/></g><g transform="translate(0 3)"><text class="d" transform="translate(256 55.5)"><tspan x="-15.901" y="0">Mood</tspan></text><g class="f" transform="translate(239.399 10.694)"><path class="g" d="M90.269,16.638V95.312A11.9,11.9,0,0,1,78.381,107.2H39.859A11.9,11.9,0,0,1,27.971,95.312V74.275a1.513,1.513,0,1,1,3.026,0V95.312a8.871,8.871,0,0,0,8.862,8.862H78.381a8.871,8.871,0,0,0,8.862-8.862V16.638a8.871,8.871,0,0,0-8.862-8.862H39.859A8.871,8.871,0,0,0,31,16.638V58.028a1.513,1.513,0,1,1-3.026,0V16.638A11.9,11.9,0,0,1,39.859,4.75H78.381A11.9,11.9,0,0,1,90.269,16.638Zm-60.785,53.1A1.514,1.514,0,0,0,31,68.223V64.476a1.513,1.513,0,1,0-3.026,0v3.747A1.514,1.514,0,0,0,29.484,69.736Zm55.6-53.1a1.513,1.513,0,0,0-1.513-1.513H34.67a1.513,1.513,0,0,0-1.513,1.513V51.055a1.513,1.513,0,0,0,1.513,1.513H70.129a1.513,1.513,0,0,0,0-3.026H36.183V18.151H82.057V49.543H77.519a1.513,1.513,0,0,0,0,3.026H83.57a1.513,1.513,0,0,0,1.513-1.513ZM79.9,35.73V29.174a1.513,1.513,0,1,0-3.026,0V35.73a1.513,1.513,0,0,0,3.026,0ZM59.12,21.325A12.523,12.523,0,1,1,46.6,33.848,12.523,12.523,0,0,1,59.12,21.325Zm3.571,3.729a4.322,4.322,0,0,1,.07.738,3.881,3.881,0,0,1-3.877,3.877,3.384,3.384,0,0,1-2.378-.968,1.513,1.513,0,1,1,2.114-2.161.373.373,0,0,0,.259.107.852.852,0,0,0,.851-.851,1.443,1.443,0,0,0-1.165-1.414,9.482,9.482,0,1,0,4.121.675Zm.118,11.914a1.515,1.515,0,0,0-1.882,1.018c-.247.828-1.251,1.049-1.806,1.049s-1.556-.22-1.8-1.048a1.513,1.513,0,0,0-2.9.865,5.053,5.053,0,0,0,9.41,0A1.513,1.513,0,0,0,62.808,36.968Zm-2.4-4.905a1.513,1.513,0,1,0,2.627,1.5c.119-.209.156-.209.314-.209s.194,0,.313.209a1.514,1.514,0,1,0,2.63-1.5,3.361,3.361,0,0,0-5.879,0Zm-5.837,1.5c.119-.209.156-.209.313-.209s.194,0,.313.209a1.513,1.513,0,1,0,2.627-1.5,3.36,3.36,0,0,0-5.879,0,1.513,1.513,0,1,0,2.627,1.5Zm7.139,37.612H56.526A4.111,4.111,0,0,1,52.42,67.07V61.882a4.112,4.112,0,0,1,4.107-4.107h5.187a4.112,4.112,0,0,1,4.107,4.107V67.07a4.111,4.111,0,0,1-4.107,4.107Zm1.081-9.294A1.082,1.082,0,0,0,61.714,60.8H56.526a1.082,1.082,0,0,0-1.081,1.081V67.07a1.082,1.082,0,0,0,1.081,1.081h5.187a1.082,1.082,0,0,0,1.081-1.081ZM48.287,81.573a4.112,4.112,0,0,1-4.107,4.107H41.587a4.112,4.112,0,0,1-4.107-4.107V78.979a4.112,4.112,0,0,1,4.107-4.107h2.594a4.112,4.112,0,0,1,4.107,4.107Zm-3.026-2.594A1.082,1.082,0,0,0,44.181,77.9H41.587a1.081,1.081,0,0,0-1.081,1.081v2.594a1.082,1.082,0,0,0,1.081,1.081h2.594a1.082,1.082,0,0,0,1.081-1.081Zm19.262,2.594a4.112,4.112,0,0,1-4.107,4.107H57.823a4.112,4.112,0,0,1-4.107-4.107V78.979a4.112,4.112,0,0,1,4.107-4.107h2.594a4.112,4.112,0,0,1,4.107,4.107ZM61.5,78.979A1.082,1.082,0,0,0,60.417,77.9H57.823a1.082,1.082,0,0,0-1.081,1.081v2.594a1.082,1.082,0,0,0,1.081,1.081h2.594A1.082,1.082,0,0,0,61.5,81.573ZM80.76,81.573a4.112,4.112,0,0,1-4.107,4.107H74.059a4.112,4.112,0,0,1-4.107-4.107V78.979a4.112,4.112,0,0,1,4.107-4.107h2.594a4.112,4.112,0,0,1,4.107,4.107Zm-3.026-2.594A1.081,1.081,0,0,0,76.653,77.9H74.059a1.082,1.082,0,0,0-1.081,1.081v2.594a1.082,1.082,0,0,0,1.081,1.081h2.594a1.082,1.082,0,0,0,1.081-1.081ZM48.287,92.12v2.594a4.112,4.112,0,0,1-4.107,4.107H41.587a4.112,4.112,0,0,1-4.107-4.107V92.12a4.112,4.112,0,0,1,4.107-4.107h2.594a4.112,4.112,0,0,1,4.107,4.106Zm-3.026,0a1.082,1.082,0,0,0-1.081-1.081H41.587a1.082,1.082,0,0,0-1.081,1.081v2.594a1.081,1.081,0,0,0,1.081,1.081h2.594a1.082,1.082,0,0,0,1.081-1.081Zm19.262,0v2.594a4.112,4.112,0,0,1-4.107,4.107H57.823a4.112,4.112,0,0,1-4.107-4.107V92.12a4.112,4.112,0,0,1,4.107-4.107h2.594a4.112,4.112,0,0,1,4.107,4.106Zm-3.026,0a1.082,1.082,0,0,0-1.081-1.081H57.823a1.082,1.082,0,0,0-1.081,1.081v2.594a1.082,1.082,0,0,0,1.081,1.081h2.594A1.082,1.082,0,0,0,61.5,94.714Zm19.262,0v2.594a4.112,4.112,0,0,1-4.107,4.107H74.059a4.112,4.112,0,0,1-4.107-4.107V92.12a4.112,4.112,0,0,1,4.107-4.107h2.594a4.112,4.112,0,0,1,4.107,4.106Zm-3.026,0a1.082,1.082,0,0,0-1.081-1.081H74.059a1.082,1.082,0,0,0-1.081,1.081v2.594a1.082,1.082,0,0,0,1.081,1.081h2.594a1.081,1.081,0,0,0,1.081-1.081ZM33.157,64.476a4.112,4.112,0,0,1,4.107-4.107h6.916a4.107,4.107,0,0,1,0,8.213H37.264A4.111,4.111,0,0,1,33.157,64.476Zm3.026,0a1.081,1.081,0,0,0,1.081,1.081h6.916a1.081,1.081,0,0,0,0-2.161H37.264A1.082,1.082,0,0,0,36.183,64.476Zm44.792,4.107H74.059a4.107,4.107,0,0,1,0-8.213h6.916a4.107,4.107,0,1,1,0,8.213Zm-6.916-3.026h6.916a1.081,1.081,0,0,0,0-2.161H74.059a1.081,1.081,0,0,0,0,2.161Z" transform="translate(-42.528 -18.279)"/></g></g><g transform="translate(-1 3)"><text class="d" transform="translate(110 55.5)"><tspan x="-21.884" y="0">Feeding</tspan></text><path class="h" d="M1939.663-1164.593a1.836,1.836,0,0,1-1.244-.474,1.542,1.542,0,0,1-.517-1.139V-1181.8a1.546,1.546,0,0,1,.517-1.139,1.739,1.739,0,0,1,.354-.25,1.69,1.69,0,0,1,.086-1.328,1.043,1.043,0,0,1,.7-.556c.231-2.093,2.385-3.461,3.3-3.955a2.494,2.494,0,0,1,.444-2.518,2.235,2.235,0,0,1,1.636-.671,2.286,2.286,0,0,1,1.636.68,2.478,2.478,0,0,1,.454,2.51c.926.5,3.091,1.876,3.306,3.982a1.038,1.038,0,0,1,.547.527,2.226,2.226,0,0,1,.107,1.31,1.776,1.776,0,0,1,.387.268,1.546,1.546,0,0,1,.517,1.139v15.591a1.542,1.542,0,0,1-.517,1.139,1.837,1.837,0,0,1-1.244.474Zm-.59-17.745a.732.732,0,0,0-.246.541v15.591a.732.732,0,0,0,.246.541.876.876,0,0,0,.59.225h10.476a.876.876,0,0,0,.59-.225.736.736,0,0,0,.246-.541V-1181.8a.736.736,0,0,0-.246-.541.88.88,0,0,0-.59-.224h-10.476A.88.88,0,0,0,1939.073-1182.337Zm5.008-8.528c-.328.345-.451.966-.1,1.892a.5.5,0,0,1-.261.657c-.009,0-2.739,1.2-3.091,3.191h8.644c-.354-1.993-3.083-3.187-3.091-3.191a.5.5,0,0,1-.271-.635,1.735,1.735,0,0,0-.1-1.9,1.211,1.211,0,0,0-.868-.357h-.008A1.177,1.177,0,0,0,1944.08-1190.866Z" transform="translate(-1834.903 1202.593)"/></g><g transform="translate(0 3)"><text class="d" transform="translate(34 55.5)"><tspan x="-15.415" y="0">Sleep</tspan></text><g transform="translate(19.605 12.462)"><path class="i" d="M115.849,633.785a.5.5,0,0,0-.407-.343l-1.841-.268-.771-1.562V618.546a14.292,14.292,0,0,1,2.082,3.173.5.5,0,0,0,.455.287.5.5,0,0,0,.217-.05.5.5,0,0,0,.237-.672,15.528,15.528,0,0,0-13.424-8.766c.061-.1-.9.059-1.008,0a15.524,15.524,0,0,0-10.209,4.329.508.508,0,0,0-.127.125c-.241.237-.57.513-1,1,0,0-.547.6-.115.907s.875-.29.875-.29,1.031-1.008,1.155-1.1c-.027,0,.339-.2.387-.233v14.352l-.771,1.562-1.841.268a.5.5,0,0,0-.279.86l1.332,1.3-.315,1.833a.5.5,0,0,0,.731.531l1.646-.865,1.646.865a.5.5,0,0,0,.731-.531L94.92,635.6l1.332-1.3a.5.5,0,0,0-.279-.86l-1.841-.268-.771-1.562,0-15.036c2.6-2.459,7.326-3.058,8.531-3.058a4.973,4.973,0,0,1,2.227.315v10.254l-.049,0a3,3,0,0,0-1.68.512.5.5,0,0,0,.174.911,1.625,1.625,0,0,1,0,3.173.5.5,0,0,0-.174.91,3.008,3.008,0,1,0,2.738-5.311V614.051c1.613.146,5.345,2.164,6.706,3.453a.494.494,0,0,0-.013.11v14l-.771,1.562-1.841.268a.5.5,0,0,0-.279.86l1.332,1.3-.314,1.833a.5.5,0,0,0,.731.531l1.646-.865,1.647.865a.5.5,0,0,0,.731-.531l-.315-1.833,1.332-1.3A.5.5,0,0,0,115.849,633.785Zm-22.124.349,1.092.159-.791.77a.5.5,0,0,0-.145.446l.187,1.088-.977-.513a.5.5,0,0,0-.469,0l-.977.513.187-1.088a.5.5,0,0,0-.145-.446l-.79-.77,1.092-.159a.5.5,0,0,0,.38-.276l.488-.99.488.99A.5.5,0,0,0,93.725,634.134Zm12.348-7.041a2,2,0,0,1-2,2c-.048,0-.1,0-.144-.005a2.623,2.623,0,0,0,0-3.992c.048,0,.1-.005.144-.005A2,2,0,0,1,106.073,627.093Zm7.423,7.97a.5.5,0,0,0-.145.446l.187,1.088-.977-.513a.5.5,0,0,0-.469,0l-.977.513.187-1.088a.5.5,0,0,0-.145-.446l-.791-.77,1.092-.159a.5.5,0,0,0,.38-.276l.488-.99.489.99a.5.5,0,0,0,.38.276l1.092.159Z" transform="translate(-87.915 -612.484)"/></g></g><g transform="translate(-6 3)"><text class="d" transform="translate(338 55.5)"><tspan x="-23.175" y="0">Updates</tspan></text><g transform="translate(3272 -2422)"><g transform="translate(0.114 0.213)"><path class="j" d="M-3068.681,1720.518l-.631,8a1.445,1.445,0,0,1-1.345,1.024,1.458,1.458,0,0,1-1.662-1.333c-.126-.831-.736-9.7-.736-9.7a2.194,2.194,0,0,1,2.082-1.8,2.143,2.143,0,0,1,2.439,1.8C-3068.533,1719.088-3068.681,1720.518-3068.681,1720.518Z" transform="translate(137.441 723.116)"/><g class="k" transform="translate(-2935.114 2454)"><circle class="l" cx="2" cy="2" r="2"/><circle class="m" cx="2" cy="2" r="1.6"/></g></g><g class="j" transform="translate(-2945 2437)"><circle class="l" cx="11.5" cy="11.5" r="11.5"/><circle class="m" cx="11.5" cy="11.5" r="11"/></g></g></g></g></svg>