<svg xmlns="http://www.w3.org/2000/svg" xmlns:xlink="http://www.w3.org/1999/xlink" width="101.282" height="91.826" viewBox="0 0 101.282 91.826"><defs><style>.a{fill:#fff;}.b{fill:#d16136;}.c{fill:#ffe2cb;}.d{fill:#ffb680;opacity:0.2;}.e{fill:#ffb580;opacity:0.19;}.f{fill:url(#a);}.g{fill:#8e3f26;}.h{fill:#ffd0a8;}.i{fill:url(#b);}</style><linearGradient id="a" x1="1.228" y1="1.483" x2="0.197" y2="0.393" gradientUnits="objectBoundingBox"><stop offset="0" stop-color="#c5acff"/><stop offset="1" stop-color="#c5f5ff"/></linearGradient><linearGradient id="b" x1="0.292" y1="0.5" x2="-0.25" y2="-0.416" xlink:href="#a"/></defs><g transform="translate(31.669)"><path class="a" d="M-271.887,697.194a13.458,13.458,0,0,1,1.078-4.464c.443-1.079,2.245-3.209,2.124-4.167-.1-.76-.834-1.525-1.08-2.294a6.761,6.761,0,0,1-.314-2.235,5.618,5.618,0,0,1,.853-2.959c.985-1.451,2.5-1.023,3.332-1.7.321-.264.471-1.123.747-1.517.483-.692.711-.622.637-1.29-.08-.722-.966-1.813-1.257-2.553a16.718,16.718,0,0,1-.746-2.4,14.428,14.428,0,0,1,1.321-10.007c1.381-2.669,3.65-5.137,4.227-8.153.443-2.315-.334-4.7-.334-7.031a19.552,19.552,0,0,1,2.173-8.825,21.4,21.4,0,0,1,8.262-8.663,25.467,25.467,0,0,1,10.383-3.437,9.835,9.835,0,0,0,2.6-.348c.814-.323,1.526-.884,2.372-1.19a15.44,15.44,0,0,1,6.255-.757c14.681.971,29.768,13.9,29.522,29.291a30.181,30.181,0,0,1-3.06,12.364c-.912,1.922-2.526,3.671-3.325,5.589-.545,1.31-.443,2.813-1.17,4.147a7.887,7.887,0,0,1-3.37,3.327,6.511,6.511,0,0,1-2.876.712c-.384,0-.756-.107-1.137-.112-.971-.012-.435-.244-1.062.386-.678.681-1.11,2.072-1.713,2.861a16.2,16.2,0,0,1-2.138,2.278,18.4,18.4,0,0,1-5.2,3.225c3.262,5.378,1.508,13.3-1.61,18.343a11.932,11.932,0,0,1-3.006,3.428,6.812,6.812,0,0,1-1.622.887c-1.068.4-1.191.046-1.536,1.018-.567,1.6.406,3.162-1.825,3.747s-5.147.131-7.422.024A67.533,67.533,0,0,1-252.6,713.39a36.469,36.469,0,0,1-10.106-3.542c-1.009-.557-2.337-1.133-2.7-2.327a10.155,10.155,0,0,1,.157-3.611C-269.3,704.006-272.1,701.381-271.887,697.194Z" transform="translate(269.343 -623.156)"/><path class="b" d="M-93.294,854.04c.219-.227.449-.36.515-.3s-.058.3-.277.526-.449.36-.515.3S-93.512,854.268-93.294,854.04Z" transform="translate(104.003 -778.248)"/><path class="c" d="M-262.2,694.221c-.363-1.162-.6-2.234-.6-2.234-1.61-.8,1.113-2.108,1.837-3s-1.09-1.135-1.234,0,.5,1.281,1.234,1.065.448-2.094.721-4.07,1.386-3.823,2.835-3.2c.4.445.518-.185.518-.185s-3.351-3.944-3.592-8.234.769-6.608,3.4-10.832,2.847-6.669,2.273-9.451-.3-8.866,2.475-12.49a23.067,23.067,0,0,1,8.066-6.862.469.469,0,0,0-.093-.132l.126-.059c1.241-.6,8.349-2.7,12.2-2.6,3.848-1.4,5.565-3.028,13.667-.573,2.883.874,5.682,2.9,8.421,4.251.92.852,1.816,1.731,2.7,2.608a42.472,42.472,0,0,1,7.788,9.88,34.252,34.252,0,0,1,1.881,7.281c-.338,3.695-.558,7.812-1.977,11.264-.833,2.027-1.149,2.156-2.088,4.135-.523,1.1-1.74,2.327-2.182,3.464-.022.057-.031,1.831-.052,1.888a1.7,1.7,0,0,0-.236.561c-.051.228-.113.451-.183.669l-.013.04a8.5,8.5,0,0,1-.869,1.848,9.921,9.921,0,0,1-4.025,2.359c-.065-.109-.129-.222-.191-.341-.28.493-2.832-.91-2.832-.91-1.128,3.752-5.212,8.959-11.039,10.263.24.266-.147,1.178-.147,1.178s3.686,2.395,2.239,9.01-3.012,10.756-6.811,12.008c-1.551.512-2.206-.108-2.206-.108a8.04,8.04,0,0,0-.246,1.964l-16.618-.774c-1.721-1.095-4.26-1.424-6.056-1.994-1.994-.633-3.956-1.347-5.953-1.959.1-1.721,3.958-.863,4.256-1.693-.144.093,2.181-6.013,1.7-6.268-1.812-.84-.347-4.766-1.7-6.547C-256.312,693.461-265.894,697.627-262.2,694.221Z" transform="translate(265.125 -627.827)"/><path class="d" d="M-240.082,768.488c1.543-.771,3.765-.327,3.6,1.719s-3.4,2.455-4.337,1.269S-241.474,769.184-240.082,768.488Z" transform="translate(296.091 -720.674)"/><path class="e" d="M-183.572,663.536c2.635-4.224,2.847-6.669,2.273-9.451s-.3-8.866,2.474-12.49a23.067,23.067,0,0,1,8.066-6.862.469.469,0,0,0-.093-.132l.126-.059c1.241-.6,8.349-2.7,12.2-2.6,2.9-1.055,4.6-2.24,8.731-1.705-7.83-.1-13.629,9.749-3.193,19.382-9.275-3.055-12.44-8.62-12.221-12.221-5.238.655-14.027,7.043-12.251,16.125s-4.226,12.9-6.19,14.647-6.262,9.126,7.072,16.184c9.269,4.906,17.946,7.082,25.675,5.352-.653.555-1.3,1.117-1.959,1.668-1.116.933-2.283,1.8-3.464,2.648a29.472,29.472,0,0,1-20.447-3.452c-3.636-2.2-6.894-4.035-9.725-5.673.464-1.5,1.418-2.62,2.6-2.111.4.444.518-.185.518-.185s-3.351-3.944-3.592-8.234S-186.207,667.759-183.572,663.536Z" transform="translate(191.618 -627.83)"/><path class="f" d="M-208.414,789.443c-.363-1.162-3,10.633-2.275,9.739.461-.568,10.467.515,10.467.515s10.245-4.563,10.74-4.416c1.06.728-1.052-3.557,1.041-3.354,3.852.377,10.583,4.224,12.176,4.644a3.7,3.7,0,0,0,2.662,4.967c1.814.54,5.331,1.3,7.677-2.266.984.558,8.383-.245,12.343-.089a3.882,3.882,0,0,1-.169.515s3.686,2.395,2.238,9.01-3.012,10.756-6.811,12.009c-1.551.511-2.083.056-2.083.056a21.14,21.14,0,0,0-.2,4.174s-.139.343-2.184.562c-.514-.072-1.014-.164-1.44-.2-1.746-.164-3.5-.094-5.255-.2a1.843,1.843,0,0,0-1.014.2c-2.494-.274-4.978-.624-7.459-1-.6-.216-1.214-.379-1.785-.556-1.87-.579-3.77-1.071-5.627-1.7a14.182,14.182,0,0,1-4.105-2.231c.066-2.535,3.7-12.705,4.105-13.839-2.852-1.114-6.147.268-12.463-3.343S-212.107,792.849-208.414,789.443Z" transform="translate(195.465 -735.72)"/><path class="a" d="M-146.12,810.353c-2.346,3.561-5.864,2.805-7.678,2.266a3.7,3.7,0,0,1-2.662-4.967,15.546,15.546,0,0,1-1.845-.658l-.152-.018c-.659,4.094-.292,6.781,3.33,7.987s10.152.214,11.9-2.934c.295-.529.058-1.023-.537-1.479A6.783,6.783,0,0,1-146.12,810.353Z" transform="translate(175.66 -746.801)"/><path class="a" d="M-112.377,728.155c-.3.485-.515,2.958,2.6,4.138s4.972.243,4.2-2.81C-106.765,724.792-111.45,726.636-112.377,728.155Z" transform="translate(122.847 -692.66)"/><path class="a" d="M-191.039,748.975c.069.3,1.458,1.448,4.572,1.42a13.438,13.438,0,0,0,5.69-1.44s-1.931-4.47-5.692-4.625C-191.1,744.141-191.133,748.569-191.039,748.975Z" transform="translate(223.927 -704.66)"/><path class="g" d="M-178.206,748.826a2.694,2.694,0,0,0,2.382,2.865c2.208.246,2.637-2.017,2.668-2.6a2.639,2.639,0,0,0-2.382-2.864A2.638,2.638,0,0,0-178.206,748.826Z" transform="translate(212.096 -705.936)"/><path class="g" d="M-107.993,729.11a2.573,2.573,0,0,0-2.572,2.56,2.573,2.573,0,0,0,2.291,2.815,2.573,2.573,0,0,0,2.572-2.56A2.573,2.573,0,0,0-107.993,729.11Z" transform="translate(122.499 -694.423)"/><path class="g" d="M-183.94,746.6a.778.778,0,0,0,.41-.1c.094-.059.181-.123.279-.177.2-.112.413-.234.624-.329l-.008-.037c-.232-.031-.469-.09-.7-.14-.144-.031-.269-.078-.4-.1q-.034-.242-.089-.476a3.329,3.329,0,0,0,.4-.22,1.907,1.907,0,0,0,.556-.561l-.036-.04a1.78,1.78,0,0,1-.705.129,2.027,2.027,0,0,1-.463-.107,7.136,7.136,0,0,0-1.188-1.97,5.47,5.47,0,0,0-3.362-2.149,5.6,5.6,0,0,0-3.711.9,5.5,5.5,0,0,0-2.212,2.963l.045.03a7.29,7.29,0,0,1,2.5-1.957,5.7,5.7,0,0,1,3.159-.324,5.518,5.518,0,0,1,4.5,4.1l.012.039A.4.4,0,0,0-183.94,746.6Z" transform="translate(226.918 -701.94)"/><path class="g" d="M-106.287,725.42a5.127,5.127,0,0,0-1.305-2.695,2.483,2.483,0,0,0-2.752-.821,2.025,2.025,0,0,1-.3.011c-.123-.164-.321-.247-.45-.426a2.9,2.9,0,0,1-.318-.689l-.058,0a3.058,3.058,0,0,0-.085.847c0,.135-.009.267-.006.4a5.14,5.14,0,0,0-.544.158,2.845,2.845,0,0,1-.413-.382,2.6,2.6,0,0,1-.42-.842.028.028,0,0,0-.055,0,3.632,3.632,0,0,0,.232,1.509,2.97,2.97,0,0,0-1.626,2.315l.046.022a8.334,8.334,0,0,1,1.592-1.453,3.752,3.752,0,0,1,2.248-.344,5.685,5.685,0,0,1,2.156.6,3.227,3.227,0,0,1,1.4,1.923A.347.347,0,0,0-106.287,725.42Z" transform="translate(124.335 -688.836)"/><path class="b" d="M-189.354,710.91a18.548,18.548,0,0,1,3.214,1.712l.046-.041a6.936,6.936,0,0,0-2.79-2.977,5.262,5.262,0,0,0-2.9-.933c-.651.054-.722,1.5-.124,1.557A6.6,6.6,0,0,1-189.354,710.91Z" transform="translate(229.657 -680.672)"/><path class="b" d="M-107.1,698.765c.662-.042.759-1.256.132-1.494a4.7,4.7,0,0,0-3.044.144A11.281,11.281,0,0,0-113,699.091c-.449.485.931-.292,2.991-.521C-109.105,698.47-108.2,698.834-107.1,698.765Z" transform="translate(124.169 -672.876)"/><path class="b" d="M-159.745,772.081c.066.028.132.058.2.09.975,1.255,5.879,4.185,6.6,5.459.7,1.248,3.309.516,4.373-.884.257-.339,2.008-2.883,2.685-4h.038a.529.529,0,0,0,.368-.924.528.528,0,0,0-.858.485c-.867.3-2.249.87-2.565.955a15.426,15.426,0,0,1-4.184.552,10.831,10.831,0,0,1-3.212-.556c-.191-.062-1.568-.748-2.5-1.169a3.748,3.748,0,0,1-.44-.587C-159.634,770.852-160.452,771.785-159.745,772.081Z" transform="translate(178.303 -722.788)"/><path class="b" d="M-132.142,759.208c-.064.016-.214.054-.184.131.047.124.234.246.347.334.162.126.3.27.462.4.251.193.617.034.574-.223a.967.967,0,0,0-.721-.629A.916.916,0,0,0-132.142,759.208Z" transform="translate(154.864 -714.652)"/><path class="b" d="M-67.211,800.566h0Z" transform="translate(69.817 -742.49)"/><path class="a" d="M-174.108,757.9a.6.6,0,0,1-.633.57.6.6,0,0,1-.57-.633.6.6,0,0,1,.633-.57A.6.6,0,0,1-174.108,757.9Z" transform="translate(212.102 -713.365)"/><path class="a" d="M-174.222,754.209a.375.375,0,0,1-.395.355.376.376,0,0,1-.356-.395.376.376,0,0,1,.395-.356A.376.376,0,0,1-174.222,754.209Z" transform="translate(212.105 -711.042)"/><path class="a" d="M-107.222,737.459a.376.376,0,0,1-.395.355.376.376,0,0,1-.356-.395.376.376,0,0,1,.395-.355A.376.376,0,0,1-107.222,737.459Z" transform="translate(123.173 -699.775)"/><path class="a" d="M-105.536,740.73a.6.6,0,0,1-.633.57.6.6,0,0,1-.57-.633.6.6,0,0,1,.633-.571A.6.6,0,0,1-105.536,740.73Z" transform="translate(121.082 -701.815)"/><path class="h" d="M-191.5,657.774a11.82,11.82,0,0,0,2.592,6.633,9.407,9.407,0,0,1-3.965-4.437,9.553,9.553,0,0,1-.352-6.677c.736-2.107,2.49-3.614,4.25-3.376-1.06-.143-1.778,2.171-2.05,3.117A13.434,13.434,0,0,0-191.5,657.774Z" transform="translate(232.911 -641.139)"/><path class="c" d="M1.744,4.609c-2.755,1.677-1.7,4.1-.547,5.6.859,3.009,3.481,8.736,6,9.207A3.374,3.374,0,0,0,10.8,17.66c1.389-.647,3.891-2.337,3.882-4.582A33.7,33.7,0,0,1,16.472,8a2.182,2.182,0,0,0-2.754.83c-.422.782-1.768,2.236-2.4,1.272s-.014-2.965,1.163-4.428,1.266-3.957.446-3.661A12.518,12.518,0,0,0,9.077,6.093c.055-1.056.832-3.767.674-4.792S8.7-.448,8.024.322a3.316,3.316,0,0,0-.786,1.271S5.719-.138,4.688,1.756s-1.019,4.1-1.181,5.57-1.01,1.056-.934.036A3.363,3.363,0,0,0,1.744,4.609Z" transform="translate(-31.669 57.762) rotate(-49)"/><g transform="translate(-20.929 45.49) rotate(-14)"><path class="i" d="M9.078,4.539A4.539,4.539,0,1,1,4.539,0,4.539,4.539,0,0,1,9.078,4.539Z" transform="translate(10.603 8.778)"/><path class="i" d="M12.32,0,9.874,2.673h-7.2A2.68,2.68,0,0,0,0,5.345V21.38a2.68,2.68,0,0,0,2.673,2.673H27.612a2.68,2.68,0,0,0,2.673-2.673V5.345a2.68,2.68,0,0,0-2.673-2.673H21L18.558,0Zm2.822,20.044a6.681,6.681,0,1,1,6.681-6.681A6.684,6.684,0,0,1,15.142,20.044Z" transform="translate(0 0)"/></g><path class="c" d="M.737,7.154a1.2,1.2,0,0,0,1.046.735c.277.01.583-.071.814.082a.69.69,0,0,1,.083.922,6.188,6.188,0,0,1-.706.741,5.152,5.152,0,0,0-.841,1.943c-.241.748-.587,1.458-.834,2.2A4.408,4.408,0,0,0,.073,16.1a2.221,2.221,0,0,0,1.468,1.7,3.444,3.444,0,0,0,2.522-.653A25.969,25.969,0,0,0,8.352,14.2a11.533,11.533,0,0,0,3.094-4.138,5.614,5.614,0,0,1,.584-1.213,5.355,5.355,0,0,1,.937-.882,6.585,6.585,0,0,0,2.458-3.92,8.155,8.155,0,0,0-.242-2.979.963.963,0,0,0-.247-.535c-.319-.28-.832-.033-1.094.3a6.091,6.091,0,0,0-.778,2.246c-.21.771-.691,1.6-1.482,1.706A14.827,14.827,0,0,0,9.626,1.034,2.888,2.888,0,0,0,8.784.179,1.126,1.126,0,0,0,7.636.14a1.13,1.13,0,0,0-.455.967,3.081,3.081,0,0,0,.268,1.077A6.512,6.512,0,0,1,8.16,5.235,5.144,5.144,0,0,0,5.291,2.092,1.224,1.224,0,0,0,4.1,2.08c-.387.294-.35.882-.229,1.353a7.71,7.71,0,0,0,.74,1.852,1.757,1.757,0,0,0-1.668-.509C1.9,4.963.2,5.821.737,7.154Z" transform="translate(15.412 78.94) rotate(-73)"/></g></svg>