<svg xmlns="http://www.w3.org/2000/svg" xmlns:xlink="http://www.w3.org/1999/xlink" width="89.32" height="97.471" viewBox="0 0 89.32 97.471"><defs><style>.a{fill:#fff;}.b{fill:url(#a);}.c,.i{fill:#ffe2cb;}.d,.e,.f,.g{fill:#ffb580;}.d{opacity:0.23;}.e{opacity:0.26;}.f{opacity:0.22;}.g{opacity:0.18;}.h{fill:#ffdec2;}.i{opacity:0.28;}.j{fill:#8e3f26;}.k{fill:#d16136;}</style><linearGradient id="a" x1="0.216" y1="0.538" x2="0.867" y2="1.018" gradientUnits="objectBoundingBox"><stop offset="0" stop-color="#c5acff"/><stop offset="1" stop-color="#c5f5ff"/></linearGradient></defs><g transform="translate(0.07 5.378) rotate(-3)"><g transform="translate(-0.02 -0.955)"><path class="a" d="M757.052,103.915c.707-4.2,3.647-8.518,6.347-11.639,1.117-1.291,1.472-2.762,2.37-4.192a13.494,13.494,0,0,1,4.4-4.257,8.894,8.894,0,0,1,5.889-1.343,8.76,8.76,0,0,0,4.665-.28c4.066-1.286,8.382-2.16,12.648-1.449,4.5.749,8.287,3.367,11.465,6.524a53.658,53.658,0,0,1,4.487,5.17c.31.4,1.62,2.675,2.059,2.73s1.991-1.09,2.654-1.177c3.957-.521,7.207,3.552,7.554,7.16.728-.233,1.355-.433,2-.687a4.361,4.361,0,0,1,1.566-.47c.492-.01,1,.311,1.442.3.253,0,.526-.331.8-.348a13.149,13.149,0,0,1,3.888.529,8,8,0,0,1,2.158.792c3.56,2.04,4.11,6.669,2.88,10.258-.632,1.845-.778,1.56.007,3.425a29.649,29.649,0,0,1,1.767,5.592,22.7,22.7,0,0,1-.86,12.153,25.909,25.909,0,0,1-2.881,5.666,29.4,29.4,0,0,1-1.853,2.5c-.3.363-1.763,1.46-1.829,1.878-.1.661,2.023,3.315,2.383,3.922,1.159,1.956,2.3,3.926,3.363,5.936.992,1.874,1.923,3.783,2.739,5.74.571,1.37,2.187,4.152,1.433,5.616-.733,1.423-3.693,2.5-5.061,3.168a53.49,53.49,0,0,1-5.648,2.316,71.71,71.71,0,0,1-12.492,3.186c-4.095.652-8.558,1.315-12.708.92-3.935-.374-2.7-4.808-3.3-7.726a31.7,31.7,0,0,0-1.683-5.485c-.647-1.591-.926-2.2-2.558-2.368a33.708,33.708,0,0,1-11.146-3,24.916,24.916,0,0,1-9.242-7.818,29.293,29.293,0,0,1-2.792-4.615c-.76-1.557-.753-1.239-2.415-.88a7.317,7.317,0,0,1-8.417-5.145c-.424-1.821.3-3.1.964-4.684.36-.863,1.137-1.967.956-2.694-.139-.559-1.269-1.414-1.63-1.86-.719-.892-1.409-1.812-2.066-2.751a31.132,31.132,0,0,1-3.464-6.284,22.008,22.008,0,0,1-.84-14.334C757.057,103.887,756.81,104.749,757.052,103.915Z" transform="translate(-756.226 -80.5)"/><path class="b" d="M762.246,106.332A28.688,28.688,0,0,1,768.8,95.238c.085-.088.172-.173.259-.259a.7.7,0,0,1,.015-.11c1.113-4.671,7.629-10.356,12.495-7.355q.688-.25,1.379-.486a45.488,45.488,0,0,1,7.312-1.939,17.039,17.039,0,0,1,9.175.747,24.128,24.128,0,0,1,8.58,6.295,87.41,87.41,0,0,1,6.665,8.287,4.711,4.711,0,0,1,1.881-1.607,4.388,4.388,0,0,1,3.538-.035,5.133,5.133,0,0,1,2.668,2.624,6.431,6.431,0,0,1,.527,3.214,5.609,5.609,0,0,1-.785,2.624,3.561,3.561,0,0,1-1.306,1.226c.135.139.267.282.4.418a14.815,14.815,0,0,1,2.934,4.265c1.465,3.18-5.185,20.83-5.764,21.514.143-.049.947.219,1.08.171a6.966,6.966,0,0,1,1.42-.381,1.914,1.914,0,0,0,.51-.162,8.918,8.918,0,0,0,1.372-1.022,12.463,12.463,0,0,0,2.076-2.436,23.311,23.311,0,0,0,2.736-5.68,21.317,21.317,0,0,0,1.1-6.458c-.037-.01.343-.424.308-.444a10.95,10.95,0,0,1-1.6-.792,8.057,8.057,0,0,1-1.388-1.241,13.019,13.019,0,0,1-1.616-2.616c-.034-.074-.062-.148-.094-.222-.077-.146-.154-.3-.227-.455a11.425,11.425,0,0,1-.552-1.468,7.624,7.624,0,0,1-.3-1.4,1.2,1.2,0,0,1,.1-.567,3.638,3.638,0,0,1,.548-.858c-.007-.04-.015-.078-.02-.118l.139-.02h0l-.139.02a3.844,3.844,0,0,1,.192-1.879,2.624,2.624,0,0,1,.428-.744,1.9,1.9,0,0,1,.659-.516,1.623,1.623,0,0,1,.45-.133,1.642,1.642,0,0,1,.7.052,1.863,1.863,0,0,1,.377.163,2.474,2.474,0,0,1,.286-.435,1.9,1.9,0,0,1,.66-.516,1.632,1.632,0,0,1,1.153-.081,2.1,2.1,0,0,1,.88.543c.043.043.084.091.125.137a2.38,2.38,0,0,1,.924-.8,1.645,1.645,0,0,1,1.792.247,2.266,2.266,0,0,1,.514.641l.087.007a2.2,2.2,0,0,1,.392-.237,1.863,1.863,0,0,1,.941-.169,1.841,1.841,0,0,1,1,.41l.03.027a3.943,3.943,0,0,1,.692.441,11.464,11.464,0,0,1,.9.813,3.9,3.9,0,0,1,.821,1.178,6.184,6.184,0,0,1,.5,2.044,14.336,14.336,0,0,1,0,2.063,8.817,8.817,0,0,1-.744,2.785c-.18.429-.526.636-.7.984-.07.142-.227.39-.288.513.281.534.792,1.138,1.032,1.66a24.682,24.682,0,0,1,2.392,9.576,21.379,21.379,0,0,1-2.835,11.225,32.053,32.053,0,0,1-5.357,6.917,164.629,164.629,0,0,1,8.3,15.272c.64,1.392,1.164,2.793,1.648,4.085l.012.107c.1.266.224.357.325.63a61.215,61.215,0,0,1-5.684,3.3c-1.5.531-3.033.96-4.55,1.441-3.138,1-6.167,2.4-9.438,2.921-1.557.248-3.129.287-4.691.477-1.7.207-3.364.654-5.06.838a36.029,36.029,0,0,1-6.2-.219c-.035-.658-.064-1.329-.082-2.019l.038.056a27.014,27.014,0,0,0-2.4-9.722,22.766,22.766,0,0,0-1.5-2.771c-.1-.161-.2-.3-.279-.421a29.35,29.35,0,0,1-4.125-.414c-.212-.036-.432-.076-.654-.118a31.329,31.329,0,0,1-9.3-3.287,22.984,22.984,0,0,1-7.15-6.542,31.354,31.354,0,0,1-3.261-5.656c-.095-.206-.126-.362-.175-.476-.415-.172-.93-.3-1.343-.486-.145.081-.294.159-.45.232a5.5,5.5,0,0,1-1.979.5,5.673,5.673,0,0,1-2.343-.373,6.019,6.019,0,0,1-3.523-2.984,4.152,4.152,0,0,1-.1-3.3,4.33,4.33,0,0,1,.8-1.275,2.3,2.3,0,0,1,.038-.634,3.784,3.784,0,0,1,.6-1.387,3.39,3.39,0,0,1,.687-.743,1.765,1.765,0,0,1,.06-.469q-.665-.786-1.326-1.586a42.85,42.85,0,0,1-6.064-9.1,20.421,20.421,0,0,1-1.885-6.981A19.945,19.945,0,0,1,762.246,106.332Z" transform="translate(-758.9 -82.255)"/><path class="a" d="M838.971,226.455c2.28,3.292,4.468,8.606-2.071,12.571s-10.691.768-12.324-1.673S838.971,226.455,838.971,226.455Z" transform="translate(-779.576 -174.802)"/><path class="a" d="M857.843,243.4a2.82,2.82,0,1,0-3.582-1.753A2.82,2.82,0,0,0,857.843,243.4Z" transform="translate(-808.361 -182.286)"/><path class="c" d="M816.811,135.23a2.309,2.309,0,0,1,.038-.634,3.793,3.793,0,0,1,.6-1.387,3.386,3.386,0,0,1,.687-.743,1.762,1.762,0,0,1,.06-.469c-.443-.524-.886-1.052-1.326-1.586a42.835,42.835,0,0,1-6.064-9.1,20.419,20.419,0,0,1-1.885-6.981,19.929,19.929,0,0,1,1.068-8,28.68,28.68,0,0,1,6.55-11.094c.085-.088.173-.173.259-.259a.638.638,0,0,1,.015-.11c1.112-4.671,7.629-10.356,12.494-7.355q.689-.25,1.379-.486A45.486,45.486,0,0,1,838,85.09a17.038,17.038,0,0,1,9.175.747,24.126,24.126,0,0,1,8.58,6.295,87.452,87.452,0,0,1,6.665,8.287,4.713,4.713,0,0,1,1.881-1.607,4.388,4.388,0,0,1,3.537-.035A5.135,5.135,0,0,1,870.5,101.4a6.435,6.435,0,0,1,.527,3.214,5.607,5.607,0,0,1-.785,2.624,3.558,3.558,0,0,1-1.306,1.226c.135.139.267.282.4.418a14.3,14.3,0,0,1,1.93,2.422c1.691,3.083,2.651,4.28,2.44,9.324a18.43,18.43,0,0,1-.789,4.55c-.119.393-.257.791-.405,1.192-2.091,3.573-5.678,9-8.478,11.043,2.147,2.326.065,10.409-8.746,6.922-4.251,2.286-4.977,2.869-11.923.016s-9.248-7.237-9.248-7.237-4.583-.306-8.247,5.978c-.04-.091-.131-.092-.157-.154-.415-.172-.85-.41-1.264-.6-.145.081-.342.239-.5.311a5.5,5.5,0,0,1-1.979.5,5.673,5.673,0,0,1-2.343-.373,6.02,6.02,0,0,1-3.523-2.984,4.153,4.153,0,0,1-.1-3.3A4.332,4.332,0,0,1,816.811,135.23Z" transform="translate(-806.642 -82.255)"/><path class="d" d="M949.845,222.626a7.532,7.532,0,0,1-7.132-.651,1.68,1.68,0,0,0,.913-.731,2.1,2.1,0,0,0,3.276-.971.667.667,0,0,1,.14-.277.723.723,0,0,1,.374-.134,1.474,1.474,0,0,0,1-2.158c-.088-.164-.49-.44-.49-.621,0-.374.638-.388.9-.373a1.275,1.275,0,0,1,.671.177c.317.254.14.387.019.761A6.771,6.771,0,0,0,949.2,220,6.689,6.689,0,0,0,949.845,222.626Z" transform="translate(-929.177 -168.432)"/><path class="e" d="M821.705,205.5a14.342,14.342,0,0,0,11.561-5.713,4.718,4.718,0,0,0,3.851-4.052c4.917-2.173,10.282-10.059,10.39-15.77.252,1.038.479,2.017.667,2.84a18.417,18.417,0,0,1-.79,4.55c-.119.393-.257.791-.405,1.192-2.091,3.573-5.678,9-8.477,11.043,2.147,2.326.065,10.409-8.747,6.922-4.25,2.287-4.977,2.869-11.923.016-5.6-2.3-8.177-5.591-8.968-6.783C812.183,202.725,816.14,205.579,821.705,205.5Z" transform="translate(-781.1 -144.427)"/><path class="f" d="M930.842,144.4a4.332,4.332,0,0,1,.8-1.275,2.323,2.323,0,0,1,.038-.634,3.8,3.8,0,0,1,.6-1.387,3.386,3.386,0,0,1,.688-.743,1.734,1.734,0,0,1,.059-.469c-.443-.524-.887-1.052-1.326-1.586a42.862,42.862,0,0,1-6.064-9.1,20.425,20.425,0,0,1-1.885-6.981,19.936,19.936,0,0,1,1.068-8,28.68,28.68,0,0,1,6.55-11.094c.085-.088.173-.173.259-.259a.648.648,0,0,1,.015-.11,11.407,11.407,0,0,1,3.3-5.3,9.172,9.172,0,0,1,2.958.935c2.031,1.106,4.251,4.4,2.867,6.692a.512.512,0,0,0,.593.726c5.143-1.7,4.75-5.38,2.628-8.933,1.316,1.2,2.109,3.19,1.923,6.34-.094,1.6-1.57,5.419-7.388,4.33.7-.692-2.193-5.5-4.4-3.806a21.791,21.791,0,0,0-7.24,18.283c.859,10.16,6.7,13.237,10.408,14.813a2.973,2.973,0,0,0-1.747,2.4,4.1,4.1,0,0,0-1.387,5.115c.917,2.184,3.422,3.828,5.667,3.14,1.3-.4,2.035-1.619,3.247-1.947,3.863-1.047,3.849-2.632,4.016-2.948.706.658.888,1.718,1.645,2.413-.956.032-4.837.511-8.025,5.978-.041-.091-.13-.092-.157-.154-.415-.172-.85-.41-1.264-.6-.145.081-.342.239-.5.311a5.493,5.493,0,0,1-1.979.5,5.673,5.673,0,0,1-2.343-.373,6.019,6.019,0,0,1-3.523-2.984A4.152,4.152,0,0,1,930.842,144.4Z" transform="translate(-921.47 -90.151)"/><path class="g" d="M825.354,140.92c-.736-.885-1.538-1.719-2.318-2.572a2.142,2.142,0,1,1,2.318,2.572Z" transform="translate(-765.105 -116.136)"/><path class="h" d="M831.944,127.264a3.165,3.165,0,0,1-1.228.76,1.415,1.415,0,0,1-1.374.055,1.11,1.11,0,0,1-.246-1.2c.222-.748,1.01-1.664,1.862-1.6C831.979,125.367,832.683,126.412,831.944,127.264Z" transform="translate(-772.168 -108.705)"/><path class="i" d="M844.236,232.171s.079.079.211.224a12.5,12.5,0,0,1-1.473,1.3c2.147,2.326.065,10.409-8.747,6.922-.594.32-1.118.6-1.6.853l-.112-.052C837.623,239.218,844.208,232.693,844.236,232.171Z" transform="translate(-785.573 -178.536)"/><path class="c" d="M777.182,155.2v-.053c-.037-.01.713-.45.678-.47a10.081,10.081,0,0,1-1.921-.839c-.379-.363-.879-.482-1.326-1.029-2.876-3.424-3.489-4.827-2.706-7.059a4.253,4.253,0,0,1,.456-.667c-.006-.04-.015-.078-.021-.118l.14-.02h0l-.14.02a3.851,3.851,0,0,1,.193-1.879,2.623,2.623,0,0,1,.428-.744,1.9,1.9,0,0,1,.659-.516,1.625,1.625,0,0,1,.45-.133,1.642,1.642,0,0,1,.7.052,1.862,1.862,0,0,1,.377.163,2.459,2.459,0,0,1,.286-.435,1.9,1.9,0,0,1,.66-.516,1.631,1.631,0,0,1,1.153-.081,2.1,2.1,0,0,1,.881.543c.043.043.084.091.124.137a2.382,2.382,0,0,1,.924-.8,1.645,1.645,0,0,1,1.792.246,2.267,2.267,0,0,1,.514.641l.087.007a2.2,2.2,0,0,1,.393-.237,1.864,1.864,0,0,1,.941-.169,1.841,1.841,0,0,1,1,.41l.029.027a3.942,3.942,0,0,1,.692.441,11.473,11.473,0,0,1,.9.813,3.9,3.9,0,0,1,.821,1.178,6.181,6.181,0,0,1,.5,2.044,14.329,14.329,0,0,1,.005,2.063,8.824,8.824,0,0,1-.744,2.785c-.18.429-.646.8-.817,1.147-.07.142-.136.273-.2.4l.052.1A20.172,20.172,0,0,1,777.182,155.2Z" transform="translate(-707.013 -118.712)"/><path class="g" d="M788.837,156.845a1.373,1.373,0,0,1-1.3.577c-.372-.109-.6-.469-.886-.731a5.548,5.548,0,0,0-2.28-.919c-.793-.239-1.641-.751-1.736-1.573a2.565,2.565,0,0,1,.8-1.794,1.723,1.723,0,0,0,1.468-.382,1.591,1.591,0,0,0,2.6.365c-.4.44,2.167,1.448,2.288,1.62C790.375,154.84,789.378,156.242,788.837,156.845Z" transform="translate(-713.8 -126.175)"/><path class="j" d="M902.051,199.106a.173.173,0,0,1,.167-.086,8.524,8.524,0,0,0,6.073-1.392,6.7,6.7,0,0,0,2.484-3.331,3.6,3.6,0,0,0,.148-1.427.6.6,0,0,1,.019-.238.553.553,0,0,1,.3-.341.606.606,0,0,1,.429-.035.546.546,0,0,1,.38.429,5.451,5.451,0,0,1-.1,2.671,6.756,6.756,0,0,1-3.755,4.032,8.189,8.189,0,0,1-5.677.524l-.054-.016a.174.174,0,0,1-.108-.1,2.879,2.879,0,0,0-.3-.506A.173.173,0,0,1,902.051,199.106Z" transform="translate(-877.394 -152.444)"/><path class="k" d="M878.555,177.444h0Z" transform="translate(-835.643 -142.782)"/><path class="k" d="M872.608,180.279a.5.5,0,0,1-.33-.642,1.314,1.314,0,0,0-.074-.951,1.447,1.447,0,0,0-.46-.567,1.681,1.681,0,0,0-.842-.3,2.006,2.006,0,0,0-.928.141h0l-.076.033a2.575,2.575,0,0,0-1.257,1.356.525.525,0,0,1-.675.286.5.5,0,0,1-.281-.665h0a3.615,3.615,0,0,1,1.787-1.9c.037-.017.076-.034.116-.051A3.052,3.052,0,0,1,871,176.8a2.71,2.71,0,0,1,1.356.491,2.451,2.451,0,0,1,.786.963,2.32,2.32,0,0,1,.115,1.692A.525.525,0,0,1,872.608,180.279Z" transform="translate(-826.675 -142.354)"/><path class="k" d="M876.234,189.588l.051-.038a.658.658,0,0,1,.969.146.647.647,0,0,1-.28.934l-.06.025a.649.649,0,0,1-.81-.237A.633.633,0,0,1,876.234,189.588Z" transform="translate(-833.557 -150.595)"/><path class="k" d="M865.595,132.649c1.434-1.84,4.09-2.1,6.162-1.641a.2.2,0,0,1-.052.4c-2.1-.12-3.684,1.055-5.26,2.281C865.768,134.21,865.154,133.215,865.595,132.649Z" transform="translate(-824.446 -112.318)"/><path class="k" d="M936.593,178.789c-1.4,1.367-3.416,2.891-3.549,4.985a.215.215,0,0,1-.429.015,6.628,6.628,0,0,1,3.212-5.933C936.432,177.564,937.138,178.255,936.593,178.789Z" transform="translate(-912.609 -143.006)"/><path class="j" d="M849.2,151.958a.655.655,0,0,1,.2-.314.619.619,0,0,1,.382-.146,6.775,6.775,0,0,0,3.523-1.218,5.435,5.435,0,0,0,2.144-2.842,4.478,4.478,0,0,0,.053-2.348.312.312,0,0,1,0-.164.331.331,0,0,1,.181-.2.364.364,0,0,1,.256-.021.316.316,0,0,1,.2.186,5.172,5.172,0,0,1,.176,3.473,6.7,6.7,0,0,1-6.51,4.554.637.637,0,0,1-.583-.414A.829.829,0,0,1,849.2,151.958Z" transform="translate(-803.443 -121.383)"/><path class="k" d="M856.274,205.714a.758.758,0,0,1-.5-.788,4.456,4.456,0,0,1,.958-1.9c.334-.431.777-1.111,1.316-1.288a.159.159,0,0,1,.209.075,3.112,3.112,0,0,1-.195,1.672,4.451,4.451,0,0,1-.89,1.943A.821.821,0,0,1,856.274,205.714Z" transform="translate(-807.513 -158.648)"/><path class="k" d="M854.095,212.431c-.008.851,0,1.705-.037,2.555-.02.438-.74.37-.678-.067.12-.842.29-1.679.441-2.516A.138.138,0,0,1,854.095,212.431Z" transform="translate(-802.453 -165.544)"/><path class="h" d="M934.294,96.794c2.076,1.186,4.833,6.15,1.854,8.584,6.375-4.086,2.1-8.684.521-9.116A2.276,2.276,0,0,0,934.294,96.794Z" transform="translate(-915.953 -89.674)"/><path class="j" d="M842.578,148.632a.7.7,0,0,1,.263-.041c.44.014.845.188,1.278.2a3.316,3.316,0,0,0,1.308-.307l.007.011a3.607,3.607,0,0,1-2.561,1.473.706.706,0,0,1-.377-.131A5.907,5.907,0,0,0,842.578,148.632Z" transform="translate(-790.021 -123.866)"/><path class="j" d="M843.984,155.673a9.588,9.588,0,0,0,.308-.921l.052.011a11.218,11.218,0,0,1,1.151.585,4.629,4.629,0,0,0,1.409.353c.029,0,.052.046.019.063a3.45,3.45,0,0,1-3.044.216l-.02-.015C843.9,155.87,843.945,155.774,843.984,155.673Z" transform="translate(-791.999 -127.958)"/><path class="j" d="M850.01,159.817c.457.393.924.773,1.39,1.155l-.025.046c-.606-.186-1.21-.374-1.821-.543A5.593,5.593,0,0,0,850.01,159.817Z" transform="translate(-798.434 -131.267)"/><path class="j" d="M915.919,211.081l.062.055c.382.408.294.809.308,1.327a4.769,4.769,0,0,1-.133,1.285.061.061,0,0,1-.118,0,3.655,3.655,0,0,0-.41-1.089c-.213-.35-.56-.465-.669-.89a.6.6,0,0,1,0-.279A9.571,9.571,0,0,0,915.919,211.081Z" transform="translate(-885.994 -164.758)"/><path class="j" d="M921.247,214.922a8.059,8.059,0,0,0-.41-1.5.648.648,0,0,1-.024-.124,8.544,8.544,0,0,0,1.377-.233,2.973,2.973,0,0,1-.861,3.392.109.109,0,0,1-.166-.089A9.4,9.4,0,0,0,921.247,214.922Z" transform="translate(-894.127 -166.053)"/></g></g></svg>