<svg xmlns="http://www.w3.org/2000/svg" xmlns:xlink="http://www.w3.org/1999/xlink" width="100.538" height="99.031" viewBox="0 0 100.538 99.031"><defs><style>.a{fill:#b2b2b2;}.b{fill:#fff;}.c{fill:url(#a);}.d{fill:#ffd0a8;}.e{fill:#ffe2cb;}.f{fill:#ffb680;opacity:0.22;}.g{fill:#ffb580;opacity:0.11;}.h{fill:#ffdec2;}.i{fill:#8e3f26;}.j,.k{fill:#d16136;}.k{opacity:0.21;}.l{fill:#5faad3;opacity:0.35;}</style><linearGradient id="a" x1="0.5" x2="0.5" y2="1" gradientUnits="objectBoundingBox"><stop offset="0" stop-color="#c5acff"/><stop offset="1" stop-color="#c5f5ff"/></linearGradient></defs><g transform="matrix(0.985, -0.174, 0.174, 0.985, 0, 13.255)"><path class="a" d="M790.839,1199.776a.312.312,0,1,1,.221-.092A.314.314,0,0,1,790.839,1199.776Z" transform="translate(-706.963 -1152.402)"/><path class="a" d="M769.011,1216.031a.312.312,0,1,1,.221-.091A.316.316,0,0,1,769.011,1216.031Z" transform="translate(-678.316 -1163.579)"/><path class="b" d="M767.312,1203.931c-.006-2.574.937-5.893,4.038-6.051,4.88,0,11.663,5.268,8.723,10.436a7.046,7.046,0,0,1-6.657,3.57C769.495,1211.5,767.352,1207.559,767.312,1203.931Z" transform="translate(-689.346 -1151.528)"/><path class="b" d="M769.163,1072.9c-.253-4.188,3.9-6.928,7.573-7.406,3.075-.4,6.456.385,8.436,2.929,1.728,2.221,2.124,5.274,2.006,8.011-.278,5.621-1.6,11.142-1.739,16.784-.083,3.277.572,6.758-.238,9.984-1.861,7.414-9.11,1.135-10.592-2.674-1.663-4.4-.467-8.808-.43-13.34a12.556,12.556,0,0,0-2.054-7.507C770.747,1077.567,769.295,1075.525,769.163,1072.9Z" transform="translate(-696.332 -1060.432)"/><path class="c" d="M780.188,1107.013a5.705,5.705,0,0,0,2.667,1.684,1.688,1.688,0,0,0,1.589-.522,3.828,3.828,0,0,0,.807-1.868,14.861,14.861,0,0,0,.252-2.452q.026-1.238-.041-2.208t-.073-1.169a59.3,59.3,0,0,1,.342-8.714q.492-4.3,1.082-8.6a28.739,28.739,0,0,0,.3-3.022,14.756,14.756,0,0,0-.173-3.14,9.931,9.931,0,0,0-.934-2.88,5.6,5.6,0,0,0-2.117-2.238,6.5,6.5,0,0,0-2.438-.855,10.169,10.169,0,0,0-2.847-.038,8.931,8.931,0,0,0-2.717.794,6.437,6.437,0,0,0-2.122,1.578,4.861,4.861,0,0,0-1.239,2.953,6.393,6.393,0,0,0,.631,2.824,17.757,17.757,0,0,0,1.6,2.724,21.917,21.917,0,0,1,1.593,2.59,10.294,10.294,0,0,1,1.1,3.812,29.66,29.66,0,0,1,.068,3.98q-.1,2.011-.334,3.994a20.7,20.7,0,0,0-.1,3.852,12.69,12.69,0,0,0,.792,3.621A8.831,8.831,0,0,0,780.188,1107.013Zm7.607,11.19a3.389,3.389,0,0,0-1.257-2.535,14.594,14.594,0,0,0-2.644-1.986,13.036,13.036,0,0,0-2.279-1.094q-.914-.3-.165.072a2.315,2.315,0,0,0-2.115-.2,2.582,2.582,0,0,0-1.286,1.549,7.491,7.491,0,0,0-.381,2.59,8.176,8.176,0,0,0,.53,2.827,6.307,6.307,0,0,0,1.518,2.325,4.113,4.113,0,0,0,2.548,1.119,4.555,4.555,0,0,0,1.967-.234,5.406,5.406,0,0,0,1.74-1,5.735,5.735,0,0,0,1.287-1.549A4.024,4.024,0,0,0,787.794,1118.2Z" transform="translate(-697.982 -1064.22)"/><path class="b" d="M818.429,1129.276c0-5.821,1.5-13.536,6.735-16.988,1.058-.7,2.582-.784,3.538-1.478a12.812,12.812,0,0,0,1.509-1.966,26.9,26.9,0,0,1,7.594-6.1c5.3-2.894,13.2-5.358,19.007-2.678a9.68,9.68,0,0,1,3.524,2.709c.489.617.726,1.346,1.144,1.982.153.232.12.73.3.917a7.965,7.965,0,0,0,1.605.589,13.373,13.373,0,0,1,6.735,6.271,19.245,19.245,0,0,1,1.762,5.423c.156.892.251,1.79.338,2.691.132,1.355-.092,1.53,1.185,1.849a9.926,9.926,0,0,1,7.337,7.885c.639-2.177,1.706-4.126,2-6.412.212-1.666.269-3.748,2.539-3.752,2.78,0,4.159,3.342,4.112,5.663-.009.8-.24,1.458.869,1.561a15.018,15.018,0,0,0,2.107.834c.409.261.742.917,1.066,1.278a3.826,3.826,0,0,1,1.322,2.811c.01.916-.654,1.251-.834,1.97-.137.549-.046.582.086,1.334-.268-1.531.052.446.053.588.011,1.17-.916,3.316-2.059,3.5q.267.344-.511.414h0a5.56,5.56,0,0,0-.876,1.5c-.365.717-1.638,1.768-1.8,2.526a34.483,34.483,0,0,1-11.066,19.044,26.048,26.048,0,0,0-2.443,2.028c-.633.733-.627.581-.41,1.68q.157.8.274,1.606a43.826,43.826,0,0,1,.42,7.073,50.069,50.069,0,0,1-.655,7.386,9.579,9.579,0,0,1-.71,2.986,61.718,61.718,0,0,1-19.441-2.479,63.3,63.3,0,0,1-9.846-3.959q-2.527-1.27-4.932-2.764a10.554,10.554,0,0,1-2.487-1.618c-1.067-1.316.958-5.547,1.578-7.172a24.235,24.235,0,0,1,4.634-8.151,23.4,23.4,0,0,1-7.028-3.182,17.919,17.919,0,0,1-2.524-2.025c-1.076-1.055-1.28-1.115-2.843-1.045a3.729,3.729,0,0,1-.8-.173c-.054-.019-.078.031-.074.15-.408.2-.719.778-1.2,1.02a4.226,4.226,0,0,1-1.872.414c-1.332.012,2.385-1.514,1.314-2.28a9.05,9.05,0,0,1-3.538-5.989c-1.634-2.026-3.066-4.323-3.582-4.792a36.327,36.327,0,0,0-1.567-3.454,25.21,25.21,0,0,1-.841-2.938,27.922,27.922,0,0,1-.745-6.287C818.428,1126.546,818.429,1130.537,818.429,1129.276Z" transform="translate(-818.429 -1098.911)"/><path class="d" d="M994.972,1228.71a1.015,1.015,0,1,0,.98-1.049A1.015,1.015,0,0,0,994.972,1228.71Z" transform="translate(-975.824 -1187.439)"/><path class="e" d="M832.448,1194.885a7.385,7.385,0,0,0,3.1-4.672c3-.917,3.165-3.3,1.738-3.931,0,0,.839-1.383-.289-2.062.538-.736.341-2.576-.757-2.7-.247-1.138-1.96-1.415-3.292-1.061a9.517,9.517,0,0,0,.3-5.011c-.425-1.4-2.176-2.464-2.23-1.446a17.281,17.281,0,0,1-1.678,6.813,44.841,44.841,0,0,0-2.189,10.78l1.825,3.142Z" transform="translate(-764.554 -1150.269)"/><path class="e" d="M824.923,1200.022a5.038,5.038,0,0,0,2.808-1.306,3.392,3.392,0,0,1,2.5-1.229,3.023,3.023,0,0,1,2.331,1.106c1.979,2.3.341,2.4-1.611,2.425a3.34,3.34,0,0,0-1.156,3.178c.238,1.281-1.561,3.53-1.948,3.66Z" transform="translate(-759.155 -1166.692)"/><path class="c" d="M876.852,1256.5c1.76,5.9,1.46,13.944.254,19.614a48.033,48.033,0,0,1-10.488-.85,61.555,61.555,0,0,1-22.812-9.225c1.423-6.562,4.512-12.433,6.8-13.993,3.972-2.712,8.269-.435,17.876-5.213,8.687-4.321,15.627-13.119,16.875-14.764,0,0,4.805,3.432,6,3.257C890.761,1238.112,889.245,1247.8,876.852,1256.5Z" transform="translate(-822.954 -1190.469)"/><path class="b" d="M913.178,1264.517c2.41,4.485,7.144,6.625,10.575,4.782s3.5-5.947,1.089-10.431-6.388-7.652-9.818-5.808S910.768,1260.033,913.178,1264.517Z" transform="translate(-879.348 -1204.536)"/><path class="e" d="M919.655,1269.434c1.7,3.162,5.1,4.64,7.59,3.3s2.027-4.957.383-7.363c-2.025-2.964-4.046-5.428-6.538-4.089S917.956,1266.271,919.655,1269.434Z" transform="translate(-883.984 -1210.3)"/><path class="b" d="M900.41,1218.124c-.743-2.807,2.485-2.6,2.934,1.133C900.441,1222.043,898.107,1219.44,900.41,1218.124Z" transform="translate(-852.334 -1179.567)"/><path class="e" d="M876.521,1121.872c2.959-3.418,6.032-3.185,6.032-3.185l.161-.133c.035-.6,6.44-9.926,16-11.151a33.434,33.434,0,0,1,9.212.051c.543.224,1.081.457,1.6.707,1.27.607,2.134,1.394,3.281,4.507a16.2,16.2,0,0,1,5.475,2.888,19.679,19.679,0,0,1,1.821,1.861,15.42,15.42,0,0,1,2.761,8.391c.1,7.231.42,4.1.42,4.1a29.89,29.89,0,0,0,4.889,9.871c3.069,4.348,2.681,10.908-.576,15.1s-5.52,6.314-9.937,7.38c-2.912.7-4.689,1.139-5.723,1.894-.757.131-1.527.188-2.3.292-.338.046-.675.1-1.012.158-1.81.052-3.623.017-5.368-.107a28.768,28.768,0,0,1-9.912-2.411,1.157,1.157,0,0,0-.493-.11c-2.944-1.461-5.474-3.4-6.395-5.228a4.576,4.576,0,0,1-.184.444,1.147,1.147,0,0,0-.782-.067,5.381,5.381,0,0,1-3.083-.561l0-.007c-1.688-.577-2.981-3.689-2.566-5.087a18.92,18.92,0,0,1-6.308-12.43C872.977,1132.883,873.561,1125.291,876.521,1121.872Z" transform="translate(-871.104 -1104.548)"/><path class="f" d="M936.707,1139.913a2.448,2.448,0,0,1,.469-1.136,17.648,17.648,0,0,1-3.515,2.736,9.129,9.129,0,0,0,9.614-2.9,13.339,13.339,0,0,1,.427,2.89,6.987,6.987,0,0,0,1.536-1.2,16,16,0,0,0,2.11-2.715,7.4,7.4,0,0,1-3.6,1.072,6.6,6.6,0,0,0,.618-2.157C942.079,1138.315,939.684,1139.919,936.707,1139.913Z" transform="translate(-907.016 -1124.76)"/><path class="g" d="M888.134,1156.842c-1.688-.577-2.981-3.689-2.566-5.087a18.919,18.919,0,0,1-6.308-12.43c-.564-6.162.02-13.754,2.98-17.173s6.032-3.185,6.032-3.185l.161-.133c.035-.6,6.441-9.926,16-11.151.538-.069,1.076-.121,1.612-.166-2.845,1.1-6.492,2.715-8.31,4.387,5.649-2.43,12.192,5.307,3.9,9.194-2.623-.536-17.226,5.165-10.63,18.488,4.312,8.71,1.167,17.621,11.956,20.852,10.039,3.006,23.065,1.026,31.242-6.6a11.778,11.778,0,0,1-.887,1.324c-3.257,4.2-5.52,6.313-9.937,7.38-2.912.7-4.689,1.139-5.723,1.894-.757.131-1.527.188-2.3.292-.339.046-.675.1-1.012.158-1.81.053-3.623.017-5.368-.106a28.766,28.766,0,0,1-9.912-2.412,1.167,1.167,0,0,0-.493-.11c-2.944-1.461-5.474-3.4-6.395-5.228a4.525,4.525,0,0,1-.184.444,1.147,1.147,0,0,0-.782-.067,5.383,5.383,0,0,1-3.083-.561Z" transform="translate(-876.823 -1104.828)"/><path class="h" d="M938.111,1119.794a9.528,9.528,0,0,0,3.243-1.534,3.6,3.6,0,0,0,1.377-3.284,3.006,3.006,0,0,1,3.518,1.69,2.221,2.221,0,0,0,0-1.895,4.282,4.282,0,0,0-1.192-1.493,8.513,8.513,0,0,0-5.492-2.065,8.063,8.063,0,0,0-5.433,2.039c1.494.382,2.237.253,3.229,1.862A6.1,6.1,0,0,1,938.111,1119.794Z" transform="translate(-906.278 -1107.371)"/><path class="i" d="M894.365,1190.554a3.658,3.658,0,0,1,3.216,3.338c.3-.129.594-.307.879-.424.131-.053.205.11.117.2-.32.325-.857.662-1.059,1.078a.508.508,0,0,1-.965-.127,2.948,2.948,0,0,0-2.076-2.713,2.466,2.466,0,0,0-1.466.067,2.725,2.725,0,0,1,1.673,2.216,2.45,2.45,0,0,1-2.79,2.744,2.572,2.572,0,0,1-1.811-2.852c-.01.072-.016.146-.024.219a5.113,5.113,0,0,1,.652-2.273.732.732,0,0,1,.009.133A3.945,3.945,0,0,1,894.365,1190.554Z" transform="translate(-844.664 -1161.908)"/><path class="i" d="M962.545,1201.934a3.983,3.983,0,0,1,2.14-.447,4.415,4.415,0,0,1,3.369,1.922,4.541,4.541,0,0,1,.7,3.7.067.067,0,0,1-.114.015,17.091,17.091,0,0,0-1.487-2.493,3.652,3.652,0,0,0-2.329-1.364l-.062-.007a3.248,3.248,0,0,1,1.23,1.455,2.382,2.382,0,0,1-.6,2.9,2.867,2.867,0,0,1-2.17.234,2.935,2.935,0,0,1-1.417-1.283,5.368,5.368,0,0,0-.175.929.409.409,0,0,1-.451.343c-.56-.034-1.115.074-1.675.032-.348-.026-.291-.5,0-.568a10.832,10.832,0,0,1,1.21-.176,4.637,4.637,0,0,1-.326-1.878,4.379,4.379,0,0,1,.517-1.635A4.913,4.913,0,0,1,962.545,1201.934Z" transform="translate(-936.57 -1169.438)"/><path class="j" d="M966.383,1168.04a9.972,9.972,0,0,0-3.625.5.033.033,0,0,1-.033-.056,8.209,8.209,0,0,1,3.659-2.162C967.493,1166.03,967.761,1168.058,966.383,1168.04Z" transform="translate(-936.064 -1145.241)"/><path class="j" d="M906.544,1164.074a3.52,3.52,0,0,1,1.289.947l-.029.038a3.079,3.079,0,0,0-1.507-.324,12.72,12.72,0,0,0-1.326.412c-.908.234-1.137-1.267-.2-1.466A2.643,2.643,0,0,1,906.544,1164.074Z" transform="translate(-858.289 -1143.421)"/><path class="j" d="M929.1,1222.335l-.054.06c-.027.049-.039.057-.036.024s0-.022,0,.022a.5.5,0,0,1-.048.149.453.453,0,1,1-.479-.623,1.6,1.6,0,0,1,.164,0l.038.01.029-.009.078-.029.339-.125c.148-.054.323.125.2.26Z" transform="translate(-887.306 -1183.411)"/><path class="j" d="M917.256,1240.073a.445.445,0,0,1,.7-.407,13.044,13.044,0,0,0,10.182,1.123c.048-.013.06.059.022.079a9.761,9.761,0,0,1-4.087,1.125l0,0c-.474.812-.722,1.5-1.679,1.827a4.094,4.094,0,0,1-2.491.055A3.993,3.993,0,0,1,917.256,1240.073Z" transform="translate(-882.726 -1195.641)"/><path class="k" d="M1019.137,1251.094a1.263,1.263,0,0,1-1.143-1.9,1.218,1.218,0,0,1,.5-.483l-.069-.067c-.517-.48-1.323-.807-1.9-.217-.038.038-.108.007-.086-.049a1.332,1.332,0,0,1,1.69-.621,2.969,2.969,0,0,1,1.849,1.58A1.166,1.166,0,0,1,1019.137,1251.094Z" transform="translate(-1005.645 -1201.206)"/><path class="b" d="M970.567,1214.944a.432.432,0,1,0,.37-.486A.431.431,0,0,0,970.567,1214.944Z" transform="translate(-942.625 -1178.358)"/><path class="b" d="M905.465,1204.164a.4.4,0,1,0,.342-.449A.4.4,0,0,0,905.465,1204.164Z" transform="translate(-857.119 -1170.972)"/><path class="l" d="M957.4,1330.255c-.384-.171-.766-.343-1.146-.522a42.643,42.643,0,0,1,4.4-11.395.091.091,0,0,1,.161.087A48.8,48.8,0,0,0,957.4,1330.255Z" transform="translate(-927.55 -1249.757)"/></g></svg>